<svg xmlns="http://www.w3.org/2000/svg" xmlns:xlink="http://www.w3.org/1999/xlink" contentStyleType="text/css" data-diagram-type="ACTIVITY" height="620px" preserveAspectRatio="none" style="width:626px;height:620px;background:#FFFFFF;" version="1.1" viewBox="0 0 626 620" width="626px" zoomAndPan="magnify"><?plantuml 1.2026.3beta6?><defs/><g><g class="title" data-source-line="1"><text fill="#000000" font-family="sans-serif" font-size="14" font-weight="700" lengthAdjust="spacing" textLength="522.6963" x="50.7168" y="32.9951">&#1056;&#1080;&#1089;&#1091;&#1085;&#1086;&#1082; 1 &#8212; AS-IS: &#1090;&#1077;&#1082;&#1091;&#1097;&#1080;&#1081; &#1087;&#1088;&#1086;&#1094;&#1077;&#1089;&#1089; &#1086;&#1073;&#1084;&#1077;&#1085;&#1072; &#1074;&#1080;&#1076;&#1077;&#1086; &#1073;&#1077;&#1079; &#1089;&#1080;&#1089;&#1090;&#1077;&#1084;&#1099;</text></g><ellipse cx="206.7295" cy="62.2969" fill="#222222" rx="10" ry="10" style="stroke:#222222;stroke-width:1;"/><rect fill="#F1F1F1" height="33.9688" rx="12.5" ry="12.5" style="stroke:#181818;stroke-width:0.5;" width="327.3301" x="43.0645" y="92.2969"/><text fill="#000000" font-family="sans-serif" font-size="12" lengthAdjust="spacing" textLength="307.3301" x="53.0645" y="113.4355">1. &#1055;&#1086;&#1083;&#1100;&#1079;&#1086;&#1074;&#1072;&#1090;&#1077;&#1083;&#1100; &#1087;&#1086;&#1076;&#1075;&#1086;&#1090;&#1072;&#1074;&#1083;&#1080;&#1074;&#1072;&#1077;&#1090; &#1091;&#1095;&#1077;&#1073;&#1085;&#1086;&#1077; &#1074;&#1080;&#1076;&#1077;&#1086;</text><path d="M409.1504,150.6836 L409.1504,159.25 L389.1504,163.25 L409.1504,167.25 L409.1504,175.8164 A0,0 0 0 0 409.1504,175.8164 L605.1299,175.8164 A0,0 0 0 0 605.1299,175.8164 L605.1299,160.6836 L595.1299,150.6836 L409.1504,150.6836 A0,0 0 0 0 409.1504,150.6836" fill="#FEFFDD" style="stroke:#181818;stroke-width:0.5;"/><path d="M595.1299,150.6836 L595.1299,160.6836 L605.1299,160.6836 L595.1299,150.6836" fill="#FEFFDD" style="stroke:#181818;stroke-width:0.5;"/><text fill="#000000" font-family="sans-serif" font-size="13" lengthAdjust="spacing" textLength="174.9795" x="415.1504" y="167.7505">&#1090;&#1088;&#1072;&#1092;&#1080;&#1082;, &#1074;&#1088;&#1077;&#1084;&#1103; &#1086;&#1078;&#1080;&#1076;&#1072;&#1085;&#1080;&#1103;</text><rect fill="#F1F1F1" height="33.9688" rx="12.5" ry="12.5" style="stroke:#181818;stroke-width:0.5;" width="364.8418" x="24.3086" y="146.2656"/><text fill="#000000" font-family="sans-serif" font-size="12" lengthAdjust="spacing" textLength="344.8418" x="34.3086" y="167.4043">2. &#1047;&#1072;&#1075;&#1088;&#1091;&#1078;&#1072;&#1077;&#1090; &#1074;&#1080;&#1076;&#1077;&#1086; &#1074; &#1086;&#1073;&#1083;&#1072;&#1095;&#1085;&#1099;&#1081; &#1076;&#1080;&#1089;&#1082; (Google, &#1071;&#1085;&#1076;&#1077;&#1082;&#1089;)</text><rect fill="#F1F1F1" height="33.9688" rx="12.5" ry="12.5" style="stroke:#181818;stroke-width:0.5;" width="218.1348" x="97.6621" y="200.2344"/><text fill="#000000" font-family="sans-serif" font-size="12" lengthAdjust="spacing" textLength="198.1348" x="107.6621" y="221.373">3. &#1050;&#1086;&#1087;&#1080;&#1088;&#1091;&#1077;&#1090; &#1087;&#1091;&#1073;&#1083;&#1080;&#1095;&#1085;&#1091;&#1102; &#1089;&#1089;&#1099;&#1083;&#1082;&#1091;</text><rect fill="#F1F1F1" height="33.9688" rx="12.5" ry="12.5" style="stroke:#181818;stroke-width:0.5;" width="381.459" x="16" y="254.2031"/><text fill="#000000" font-family="sans-serif" font-size="12" lengthAdjust="spacing" textLength="361.459" x="26" y="275.3418">4. &#1054;&#1090;&#1087;&#1088;&#1072;&#1074;&#1083;&#1103;&#1077;&#1090; &#1089;&#1089;&#1099;&#1083;&#1082;&#1091; &#1087;&#1086;&#1083;&#1091;&#1095;&#1072;&#1090;&#1077;&#1083;&#1102; &#1074; &#1084;&#1077;&#1089;&#1089;&#1077;&#1085;&#1076;&#1078;&#1077;&#1088;&#1077;/&#1087;&#1086;&#1095;&#1090;&#1077;</text><rect fill="#F1F1F1" height="33.9688" rx="12.5" ry="12.5" style="stroke:#181818;stroke-width:0.5;" width="249.3184" x="82.0703" y="308.1719"/><text fill="#000000" font-family="sans-serif" font-size="12" lengthAdjust="spacing" textLength="229.3184" x="92.0703" y="329.3105">5. &#1055;&#1086;&#1083;&#1091;&#1095;&#1072;&#1090;&#1077;&#1083;&#1100; &#1087;&#1077;&#1088;&#1077;&#1093;&#1086;&#1076;&#1080;&#1090; &#1087;&#1086; &#1089;&#1089;&#1099;&#1083;&#1082;&#1077;</text><rect fill="#F1F1F1" height="33.9688" rx="12.5" ry="12.5" style="stroke:#181818;stroke-width:0.5;" width="351.3359" x="31.0615" y="362.1406"/><text fill="#000000" font-family="sans-serif" font-size="12" lengthAdjust="spacing" textLength="331.3359" x="41.0615" y="383.2793">6. &#1054;&#1073;&#1085;&#1072;&#1088;&#1091;&#1078;&#1080;&#1074;&#1072;&#1077;&#1090;, &#1095;&#1090;&#1086; &#1086;&#1085;&#1083;&#1072;&#1081;&#1085;-&#1087;&#1088;&#1086;&#1089;&#1084;&#1086;&#1090;&#1088; &#1085;&#1077;&#1076;&#1086;&#1089;&#1090;&#1091;&#1087;&#1077;&#1085;</text><rect fill="#F1F1F1" height="33.9688" rx="12.5" ry="12.5" style="stroke:#181818;stroke-width:0.5;" width="367.707" x="22.876" y="416.1094"/><text fill="#000000" font-family="sans-serif" font-size="12" lengthAdjust="spacing" textLength="347.707" x="32.876" y="437.248">7. &#1057;&#1082;&#1072;&#1095;&#1080;&#1074;&#1072;&#1077;&#1090; &#1074;&#1080;&#1076;&#1077;&#1086; &#1094;&#1077;&#1083;&#1080;&#1082;&#1086;&#1084; (&#1090;&#1088;&#1072;&#1092;&#1080;&#1082;, &#1084;&#1077;&#1089;&#1090;&#1086; &#1085;&#1072; &#1076;&#1080;&#1089;&#1082;&#1077;)</text><rect fill="#F1F1F1" height="33.9688" rx="12.5" ry="12.5" style="stroke:#181818;stroke-width:0.5;" width="297.5059" x="57.9766" y="470.0781"/><text fill="#000000" font-family="sans-serif" font-size="12" lengthAdjust="spacing" textLength="277.5059" x="67.9766" y="491.2168">8. &#1054;&#1090;&#1082;&#1088;&#1099;&#1074;&#1072;&#1077;&#1090; &#1083;&#1086;&#1082;&#1072;&#1083;&#1100;&#1085;&#1099;&#1084; &#1087;&#1083;&#1077;&#1077;&#1088;&#1086;&#1084;, &#1089;&#1084;&#1086;&#1090;&#1088;&#1080;&#1090;</text><rect fill="#F1F1F1" height="33.9688" rx="12.5" ry="12.5" style="stroke:#181818;stroke-width:0.5;" width="323.375" x="45.042" y="524.0469"/><text fill="#000000" font-family="sans-serif" font-size="12" lengthAdjust="spacing" textLength="303.375" x="55.042" y="545.1855">9. &#1053;&#1077; &#1084;&#1086;&#1078;&#1077;&#1090; &#1086;&#1089;&#1090;&#1072;&#1074;&#1080;&#1090;&#1100; &#1082;&#1086;&#1084;&#1084;&#1077;&#1085;&#1090;&#1072;&#1088;&#1080;&#1081; &#1080;&#1083;&#1080; &#1086;&#1094;&#1077;&#1085;&#1082;&#1091;</text><ellipse cx="206.7295" cy="589.0156" fill="none" rx="11" ry="11" style="stroke:#222222;stroke-width:1;"/><ellipse cx="206.7295" cy="589.0156" fill="#222222" rx="6" ry="6" style="stroke:#222222;stroke-width:1;"/><line style="stroke:#181818;stroke-width:1;" x1="206.7295" x2="206.7295" y1="72.2969" y2="92.2969"/><polygon fill="#181818" points="202.7295,82.2969,206.7295,92.2969,210.7295,82.2969,206.7295,86.2969" style="stroke:#181818;stroke-width:1;"/><line style="stroke:#181818;stroke-width:1;" x1="206.7295" x2="206.7295" y1="126.2656" y2="146.2656"/><polygon fill="#181818" points="202.7295,136.2656,206.7295,146.2656,210.7295,136.2656,206.7295,140.2656" style="stroke:#181818;stroke-width:1;"/><line style="stroke:#181818;stroke-width:1;" x1="206.7295" x2="206.7295" y1="180.2344" y2="200.2344"/><polygon fill="#181818" points="202.7295,190.2344,206.7295,200.2344,210.7295,190.2344,206.7295,194.2344" style="stroke:#181818;stroke-width:1;"/><line style="stroke:#181818;stroke-width:1;" x1="206.7295" x2="206.7295" y1="234.2031" y2="254.2031"/><polygon fill="#181818" points="202.7295,244.2031,206.7295,254.2031,210.7295,244.2031,206.7295,248.2031" style="stroke:#181818;stroke-width:1;"/><line style="stroke:#181818;stroke-width:1;" x1="206.7295" x2="206.7295" y1="288.1719" y2="308.1719"/><polygon fill="#181818" points="202.7295,298.1719,206.7295,308.1719,210.7295,298.1719,206.7295,302.1719" style="stroke:#181818;stroke-width:1;"/><line style="stroke:#181818;stroke-width:1;" x1="206.7295" x2="206.7295" y1="342.1406" y2="362.1406"/><polygon fill="#181818" points="202.7295,352.1406,206.7295,362.1406,210.7295,352.1406,206.7295,356.1406" style="stroke:#181818;stroke-width:1;"/><line style="stroke:#181818;stroke-width:1;" x1="206.7295" x2="206.7295" y1="396.1094" y2="416.1094"/><polygon fill="#181818" points="202.7295,406.1094,206.7295,416.1094,210.7295,406.1094,206.7295,410.1094" style="stroke:#181818;stroke-width:1;"/><line style="stroke:#181818;stroke-width:1;" x1="206.7295" x2="206.7295" y1="450.0781" y2="470.0781"/><polygon fill="#181818" points="202.7295,460.0781,206.7295,470.0781,210.7295,460.0781,206.7295,464.0781" style="stroke:#181818;stroke-width:1;"/><line style="stroke:#181818;stroke-width:1;" x1="206.7295" x2="206.7295" y1="504.0469" y2="524.0469"/><polygon fill="#181818" points="202.7295,514.0469,206.7295,524.0469,210.7295,514.0469,206.7295,518.0469" style="stroke:#181818;stroke-width:1;"/><line style="stroke:#181818;stroke-width:1;" x1="206.7295" x2="206.7295" y1="558.0156" y2="578.0156"/><polygon fill="#181818" points="202.7295,568.0156,206.7295,578.0156,210.7295,568.0156,206.7295,572.0156" style="stroke:#181818;stroke-width:1;"/><?plantuml-src NLDBJjjW4Dxx5BC4ARIYz6bMNLMiEK4N4KL2JGK-G9pGHYY8R2fLgjIMdg0cs63yoXLchi19-Bwn8LPNoV__Czzhnj5XT3GKlTJSOfjghOqMiYttu-_oVdzhRpyKcsYcXKtjJ7Ez4rtPM1lxfXaQOa7zbLQeg3KHNQ8anQ4Ht6PwAnOxC24gcmV1IVJnE0h2xMUYVz1QshdUudUfYTVW309Sf7eDaeacU2e1YW8GJWGoPgYxSg5PZt0t25y0z0VghcqC9pTTHr_JifLRWcscjSrf9wL0UDxuC1eT70q7ely0dhhdU7Ct-3oAXd9yUF0fOXJmdjWf40iKBd6YhmLXRvmcGMzkYo3SWPYVk5xXI3akPOK_fC-TVceNmWoXesJ0iF0INRzXcncxTLkqjdjbRK2b9_6OseLxgzgP-31I2CgexpdBRSP24Bnw2hxVxg5xjNtry7DNYyZMnDx-cley_QGB-Maq0t6IXbdKZ5ZljDxgjYM6jeRf2Tuo43HS2W2iA1R0Rm3y5oGSp7hQlTbnuNmJ2k1Nil7VA5hhJk-Bs4rLCqmmVDkbMa3pV0rUSjTnu19o6IfQBa73940oaBLk9WAaTq3wnRshVE8EurPyMgXXbAwm_IRum6OkMaxvqduw4Ea3Fub6Nnu0?></g></svg>