<svg xmlns="http://www.w3.org/2000/svg" xmlns:xlink="http://www.w3.org/1999/xlink" contentStyleType="text/css" data-diagram-type="CLASS" height="445px" preserveAspectRatio="none" style="width:405px;height:445px;background:#FFFFFF;" version="1.1" viewBox="0 0 405 445" width="405px" zoomAndPan="magnify"><?plantuml 1.2026.3beta6?><defs/><g><!--class User--><g class="entity" data-qualified-name="User" data-source-line="1" id="ent0002"><rect fill="#F1F1F1" height="48" rx="2.5" ry="2.5" style="stroke:#181818;stroke-width:0.5;" width="63.9102" x="204.34" y="7"/><ellipse cx="219.34" cy="23" fill="#ADD1B2" rx="11" ry="11" style="stroke:#181818;stroke-width:1;"/><path d="M223.4494,29 L215.7306,29 L215.7306,16.6094 L223.4494,16.6094 L223.4494,18.7656 L218.1838,18.7656 L218.1838,21.4375 L222.9494,21.4375 L222.9494,23.5938 L218.1838,23.5938 L218.1838,26.8438 L223.4494,26.8438 L223.4494,29 Z " fill="#000000"/><text fill="#000000" font-family="sans-serif" font-size="14" lengthAdjust="spacing" textLength="31.9102" x="233.34" y="27.8467">User</text><line style="stroke:#181818;stroke-width:0.5;" x1="205.34" x2="267.2502" y1="39" y2="39"/><line style="stroke:#181818;stroke-width:0.5;" x1="205.34" x2="267.2502" y1="47" y2="47"/></g><!--class Video--><g class="entity" data-qualified-name="Video" data-source-line="2" id="ent0003"><rect fill="#F1F1F1" height="48" rx="2.5" ry="2.5" style="stroke:#181818;stroke-width:0.5;" width="71.5322" x="169.53" y="257"/><ellipse cx="184.53" cy="273" fill="#ADD1B2" rx="11" ry="11" style="stroke:#181818;stroke-width:1;"/><path d="M188.6394,279 L180.9206,279 L180.9206,266.6094 L188.6394,266.6094 L188.6394,268.7656 L183.3738,268.7656 L183.3738,271.4375 L188.1394,271.4375 L188.1394,273.5938 L183.3738,273.5938 L183.3738,276.8438 L188.6394,276.8438 L188.6394,279 Z " fill="#000000"/><text fill="#000000" font-family="sans-serif" font-size="14" lengthAdjust="spacing" textLength="39.5322" x="198.53" y="277.8467">Video</text><line style="stroke:#181818;stroke-width:0.5;" x1="170.53" x2="240.0622" y1="289" y2="289"/><line style="stroke:#181818;stroke-width:0.5;" x1="170.53" x2="240.0622" y1="297" y2="297"/></g><!--class Comment--><g class="entity" data-qualified-name="Comment" data-source-line="3" id="ent0004"><rect fill="#F1F1F1" height="48" rx="2.5" ry="2.5" style="stroke:#181818;stroke-width:0.5;" width="100.5918" x="7" y="382"/><ellipse cx="22" cy="398" fill="#ADD1B2" rx="11" ry="11" style="stroke:#181818;stroke-width:1;"/><path d="M26.1094,404 L18.3906,404 L18.3906,391.6094 L26.1094,391.6094 L26.1094,393.7656 L20.8438,393.7656 L20.8438,396.4375 L25.6094,396.4375 L25.6094,398.5938 L20.8438,398.5938 L20.8438,401.8438 L26.1094,401.8438 L26.1094,404 Z " fill="#000000"/><text fill="#000000" font-family="sans-serif" font-size="14" lengthAdjust="spacing" textLength="68.5918" x="36" y="402.8467">Comment</text><line style="stroke:#181818;stroke-width:0.5;" x1="8" x2="106.5918" y1="414" y2="414"/><line style="stroke:#181818;stroke-width:0.5;" x1="8" x2="106.5918" y1="422" y2="422"/></g><!--class Like--><g class="entity" data-qualified-name="Like" data-source-line="4" id="ent0005"><rect fill="#F1F1F1" height="48" rx="2.5" ry="2.5" style="stroke:#181818;stroke-width:0.5;" width="60.4102" x="330.09" y="382"/><ellipse cx="345.09" cy="398" fill="#ADD1B2" rx="11" ry="11" style="stroke:#181818;stroke-width:1;"/><path d="M349.1994,404 L341.4806,404 L341.4806,391.6094 L349.1994,391.6094 L349.1994,393.7656 L343.9338,393.7656 L343.9338,396.4375 L348.6994,396.4375 L348.6994,398.5938 L343.9338,398.5938 L343.9338,401.8438 L349.1994,401.8438 L349.1994,404 Z " fill="#000000"/><text fill="#000000" font-family="sans-serif" font-size="14" lengthAdjust="spacing" textLength="28.4102" x="359.09" y="402.8467">Like</text><line style="stroke:#181818;stroke-width:0.5;" x1="331.09" x2="389.5002" y1="414" y2="414"/><line style="stroke:#181818;stroke-width:0.5;" x1="331.09" x2="389.5002" y1="422" y2="422"/></g><!--class Playlist--><g class="entity" data-qualified-name="Playlist" data-source-line="5" id="ent0006"><rect fill="#F1F1F1" height="48" rx="2.5" ry="2.5" style="stroke:#181818;stroke-width:0.5;" width="81.7588" x="121.42" y="132"/><ellipse cx="136.42" cy="148" fill="#ADD1B2" rx="11" ry="11" style="stroke:#181818;stroke-width:1;"/><path d="M140.5294,154 L132.8106,154 L132.8106,141.6094 L140.5294,141.6094 L140.5294,143.7656 L135.2638,143.7656 L135.2638,146.4375 L140.0294,146.4375 L140.0294,148.5938 L135.2638,148.5938 L135.2638,151.8438 L140.5294,151.8438 L140.5294,154 Z " fill="#000000"/><text fill="#000000" font-family="sans-serif" font-size="14" lengthAdjust="spacing" textLength="49.7588" x="150.42" y="152.8467">Playlist</text><line style="stroke:#181818;stroke-width:0.5;" x1="122.42" x2="202.1788" y1="164" y2="164"/><line style="stroke:#181818;stroke-width:0.5;" x1="122.42" x2="202.1788" y1="172" y2="172"/></g><!--class Moderation--><g class="entity" data-qualified-name="Moderation" data-source-line="6" id="ent0007"><rect fill="#F1F1F1" height="48" rx="2.5" ry="2.5" style="stroke:#181818;stroke-width:0.5;" width="111.2969" x="149.65" y="382"/><ellipse cx="164.65" cy="398" fill="#ADD1B2" rx="11" ry="11" style="stroke:#181818;stroke-width:1;"/><path d="M168.7594,404 L161.0406,404 L161.0406,391.6094 L168.7594,391.6094 L168.7594,393.7656 L163.4938,393.7656 L163.4938,396.4375 L168.2594,396.4375 L168.2594,398.5938 L163.4938,398.5938 L163.4938,401.8438 L168.7594,401.8438 L168.7594,404 Z " fill="#000000"/><text fill="#000000" font-family="sans-serif" font-size="14" lengthAdjust="spacing" textLength="79.2969" x="178.65" y="402.8467">Moderation</text><line style="stroke:#181818;stroke-width:0.5;" x1="150.65" x2="259.9469" y1="414" y2="414"/><line style="stroke:#181818;stroke-width:0.5;" x1="150.65" x2="259.9469" y1="422" y2="422"/></g><!--link User to Video--><g class="link" data-entity-1="ent0002" data-entity-2="ent0003" data-link-type="crowfoot" data-source-line="8" id="lnk8"><path codeLine="8" d="M246.6182,63.0507 C258.0882,100.5807 273.21,168.31 251.3,227 C247.2,237.96 251.8773,234.8851 244.1173,243.3451" fill="none" id="User-Video" style="stroke:#181818;stroke-width:1;"/><line style="stroke:#181818;stroke-width:1;" x1="241.6238" x2="249.2744" y1="60.3944" y2="58.0562"/><line style="stroke:#181818;stroke-width:1;" x1="242.5006" x2="250.1513" y1="63.2634" y2="60.9252"/><line style="stroke:#181818;stroke-width:1;" x1="246.6182" x2="244.28" y1="63.0507" y2="55.4"/><line style="stroke:#181818;stroke-width:1;" x1="237.3577" x2="236.3716" y1="250.7145" y2="260.6658"/><line style="stroke:#181818;stroke-width:1;" x1="237.3577" x2="227.5284" y1="250.7145" y2="252.5542"/><line style="stroke:#181818;stroke-width:1;" x1="237.3577" x2="231.95" y1="250.7145" y2="256.61"/><ellipse cx="241.4135" cy="246.2929" fill="none" rx="4" ry="4" style="stroke:#181818;stroke-width:1;"/><text fill="#000000" font-family="sans-serif" font-size="13" lengthAdjust="spacing" textLength="48.3247" x="262.3" y="160.5669">creates</text></g><!--link User to Comment--><g class="link" data-entity-1="ent0002" data-entity-2="ent0004" data-link-type="crowfoot" data-source-line="9" id="lnk9"><path codeLine="9" d="M196.9833,51.1387 C166.1633,67.5987 128.05,92.94 104.3,132 C54.81,213.36 53.0141,314.1855 55.0741,363.8555" fill="none" id="User-Comment" style="stroke:#181818;stroke-width:1;"/><line style="stroke:#181818;stroke-width:1;" x1="198.6273" x2="202.396" y1="45.726" y2="52.7827"/><line style="stroke:#181818;stroke-width:1;" x1="195.981" x2="199.7498" y1="47.1393" y2="54.196"/><line style="stroke:#181818;stroke-width:1;" x1="196.9833" x2="204.04" y1="51.1387" y2="47.37"/><line style="stroke:#181818;stroke-width:1;" x1="55.4885" x2="61.8148" y1="373.8469" y2="381.5914"/><line style="stroke:#181818;stroke-width:1;" x1="55.4885" x2="49.8252" y1="373.8469" y2="382.0886"/><line style="stroke:#181818;stroke-width:1;" x1="55.4885" x2="55.82" y1="373.8469" y2="381.84"/><ellipse cx="55.2399" cy="367.852" fill="none" rx="4" ry="4" style="stroke:#181818;stroke-width:1;"/><text fill="#000000" font-family="sans-serif" font-size="13" lengthAdjust="spacing" textLength="39.457" x="73.3" y="223.0669">writes</text></g><!--link User to Like--><g class="link" data-entity-1="ent0002" data-entity-2="ent0005" data-link-type="crowfoot" data-source-line="10" id="lnk10"><path codeLine="10" d="M267.2233,61.1404 C286.0133,80.0204 305.11,102.52 319.3,132 C359.24,215.03 351.91,243.35 361.3,335 C362.88,350.48 363.4874,350.0004 362.8374,363.6304" fill="none" id="User-Like" style="stroke:#181818;stroke-width:1;"/><line style="stroke:#181818;stroke-width:1;" x1="261.5665" x2="267.2368" y1="61.1268" y2="55.4835"/><line style="stroke:#181818;stroke-width:1;" x1="263.6827" x2="269.3531" y1="63.2532" y2="57.6099"/><line style="stroke:#181818;stroke-width:1;" x1="267.2233" x2="261.58" y1="61.1404" y2="55.47"/><line style="stroke:#181818;stroke-width:1;" x1="362.3611" x2="367.9732" y1="373.6191" y2="381.8958"/><line style="stroke:#181818;stroke-width:1;" x1="362.3611" x2="355.9868" y1="373.6191" y2="381.3242"/><line style="stroke:#181818;stroke-width:1;" x1="362.3611" x2="361.98" y1="373.6191" y2="381.61"/><ellipse cx="362.6469" cy="367.6259" fill="none" rx="4" ry="4" style="stroke:#181818;stroke-width:1;"/><text fill="#000000" font-family="sans-serif" font-size="13" lengthAdjust="spacing" textLength="34.3281" x="351.3" y="223.0669">gives</text></g><!--link User to Playlist--><g class="link" data-entity-1="ent0002" data-entity-2="ent0006" data-link-type="crowfoot" data-source-line="11" id="lnk11"><path codeLine="11" d="M212.9253,61.7989 C206.1353,70.8089 203.44,74.96 197.3,85 C188.08,100.07 186.8389,101.5813 180.3289,115.4713" fill="none" id="User-Playlist" style="stroke:#181818;stroke-width:1;"/><line style="stroke:#181818;stroke-width:1;" x1="212.1382" x2="218.5271" y1="56.1971" y2="61.0118"/><line style="stroke:#181818;stroke-width:1;" x1="210.3326" x2="216.7216" y1="58.5929" y2="63.4077"/><line style="stroke:#181818;stroke-width:1;" x1="212.9253" x2="217.74" y1="61.7989" y2="55.41"/><line style="stroke:#181818;stroke-width:1;" x1="176.0851" x2="178.1229" y1="124.5261" y2="134.3163"/><line style="stroke:#181818;stroke-width:1;" x1="176.0851" x2="167.2571" y1="124.5261" y2="129.2237"/><line style="stroke:#181818;stroke-width:1;" x1="176.0851" x2="172.69" y1="124.5261" y2="131.77"/><ellipse cx="178.6314" cy="119.0932" fill="none" rx="4" ry="4" style="stroke:#181818;stroke-width:1;"/><text fill="#000000" font-family="sans-serif" font-size="13" lengthAdjust="spacing" textLength="48.3247" x="198.3" y="98.0669">creates</text></g><!--link Video to Comment--><g class="link" data-entity-1="ent0003" data-entity-2="ent0004" data-link-type="crowfoot" data-source-line="12" id="lnk12"><path codeLine="12" d="M167.6528,310.1334 C155.7028,319.2234 148.41,325 136.3,335 C118.06,350.05 111.4997,355.6258 96.2197,369.4458" fill="none" id="Video-Comment" style="stroke:#181818;stroke-width:1;"/><line style="stroke:#181818;stroke-width:1;" x1="168.4147" x2="173.2581" y1="304.5281" y2="310.8953"/><line style="stroke:#181818;stroke-width:1;" x1="166.027" x2="170.8703" y1="306.3443" y2="312.7116"/><line style="stroke:#181818;stroke-width:1;" x1="167.6528" x2="174.02" y1="310.1334" y2="305.29"/><line style="stroke:#181818;stroke-width:1;" x1="88.8032" x2="86.8947" y1="376.1537" y2="385.9699"/><line style="stroke:#181818;stroke-width:1;" x1="88.8032" x2="78.8453" y1="376.1537" y2="377.0701"/><line style="stroke:#181818;stroke-width:1;" x1="88.8032" x2="82.87" y1="376.1537" y2="381.52"/><ellipse cx="93.2531" cy="372.129" fill="none" rx="4" ry="4" style="stroke:#181818;stroke-width:1;"/><text fill="#000000" font-family="sans-serif" font-size="13" lengthAdjust="spacing" textLength="55.0278" x="137.3" y="348.0669">contains</text></g><!--link Video to Like--><g class="link" data-entity-1="ent0003" data-entity-2="ent0005" data-link-type="crowfoot" data-source-line="13" id="lnk13"><path codeLine="13" d="M244.3629,310.0149 C256.8229,319.1049 264.62,325.01 277.3,335 C296.39,350.05 303.6762,355.9692 319.7362,369.7892" fill="none" id="Video-Like" style="stroke:#181818;stroke-width:1;"/><line style="stroke:#181818;stroke-width:1;" x1="238.774" x2="243.4889" y1="310.8889" y2="304.426"/><line style="stroke:#181818;stroke-width:1;" x1="241.1976" x2="245.9125" y1="312.657" y2="306.1941"/><line style="stroke:#181818;stroke-width:1;" x1="244.3629" x2="237.9" y1="310.0149" y2="305.3"/><line style="stroke:#181818;stroke-width:1;" x1="327.3161" x2="337.2936" y1="376.3119" y2="376.9821"/><line style="stroke:#181818;stroke-width:1;" x1="327.3161" x2="329.4664" y1="376.3119" y2="386.0779"/><line style="stroke:#181818;stroke-width:1;" x1="327.3161" x2="333.38" y1="376.3119" y2="381.53"/><ellipse cx="322.7682" cy="372.3983" fill="none" rx="4" ry="4" style="stroke:#181818;stroke-width:1;"/><text fill="#000000" font-family="sans-serif" font-size="13" lengthAdjust="spacing" textLength="54.5645" x="298.3" y="348.0669">receives</text></g><!--link Video to Moderation--><g class="link" data-entity-1="ent0003" data-entity-2="ent0007" data-link-type="aggregation" data-source-line="14" id="lnk14"><path codeLine="14" d="M202.9509,317.4478 C202.3909,326.6478 202.57,325.33 202.3,335 C201.86,350.56 202.1055,360.0759 202.9655,373.6859" fill="none" id="Video-Moderation" style="stroke:#181818;stroke-width:1;"/><polygon fill="none" points="203.68,305.47,199.3228,311.2159,202.9509,317.4478,207.3081,311.7019,203.68,305.47" style="stroke:#181818;stroke-width:1;"/><line style="stroke:#181818;stroke-width:1;" x1="207.2098" x2="199.2257" y1="377.4257" y2="377.9302"/><line style="stroke:#181818;stroke-width:1;" x1="207.0206" x2="199.0365" y1="374.4317" y2="374.9362"/><line style="stroke:#181818;stroke-width:1;" x1="202.9655" x2="203.47" y1="373.6859" y2="381.67"/><text fill="#000000" font-family="sans-serif" font-size="13" lengthAdjust="spacing" textLength="69.0498" x="203.3" y="348.0669">undergoes</text></g><!--link Playlist to Video--><g class="link" data-entity-1="ent0006" data-entity-2="ent0003" data-link-type="crowfoot" data-source-line="15" id="lnk15"><path codeLine="15" d="M176.4284,197.4122 C184.0784,219.3022 183.5613,217.8079 191.2013,239.6679" fill="none" id="Playlist-Video" style="stroke:#181818;stroke-width:1;"/><line style="stroke:#181818;stroke-width:1;" x1="173.1293" x2="164.8259" y1="187.9721" y2="182.3995"/><line style="stroke:#181818;stroke-width:1;" x1="173.1293" x2="176.1541" y1="187.9721" y2="178.4405"/><line style="stroke:#181818;stroke-width:1;" x1="173.1293" x2="170.49" y1="187.9721" y2="180.42"/><ellipse cx="175.1087" cy="193.6362" fill="none" rx="4" ry="4" style="stroke:#181818;stroke-width:1;"/><line style="stroke:#181818;stroke-width:1;" x1="194.5006" x2="202.804" y1="249.1079" y2="254.6804"/><line style="stroke:#181818;stroke-width:1;" x1="194.5006" x2="191.476" y1="249.1079" y2="258.6396"/><line style="stroke:#181818;stroke-width:1;" x1="194.5006" x2="197.14" y1="249.1079" y2="256.66"/><ellipse cx="192.521" cy="243.4439" fill="none" rx="4" ry="4" style="stroke:#181818;stroke-width:1;"/><text fill="#000000" font-family="sans-serif" font-size="13" lengthAdjust="spacing" textLength="55.0278" x="187.3" y="223.0669">contains</text></g><?plantuml-src POz12i8m44NtEKKka0jqwrR1JTs7T2Y3RGOcKId6kpirIMdZxd_Uy3u3Fc9ST1-05UHymm6ebXFDiyHQptY7cg-JNIOC6xlG06mZabTgzUcKZA5tzkbEEmOR8HnOqGjzCRPm7HCouhC1TNadpID_LaS-MlGDBs861pztXcHCIhilvEBXfOma9zlaXuvFbO4l?></g></svg>