<svg xmlns="http://www.w3.org/2000/svg" xmlns:xlink="http://www.w3.org/1999/xlink" contentStyleType="text/css" data-diagram-type="DESCRIPTION" height="1008px" preserveAspectRatio="none" style="width:855px;height:1008px;background:#FFFFFF;" version="1.1" viewBox="0 0 855 1008" width="855px" zoomAndPan="magnify"><?plantuml 1.2026.3beta6?><defs/><g><!--cluster ????????????--><g class="cluster" data-qualified-name="............" data-source-line="4" id="ent0002"><rect fill="none" height="214" rx="2.5" ry="2.5" style="stroke:#181818;stroke-width:1;" width="366.65" x="7" y="517"/><text fill="#000000" font-family="sans-serif" font-size="14" font-weight="700" lengthAdjust="spacing" textLength="114.1738" x="133.2381" y="531.9951">&#1055;&#1086;&#1083;&#1100;&#1079;&#1086;&#1074;&#1072;&#1090;&#1077;&#1083;&#1080;</text></g><!--cluster ?????--><g class="cluster" data-qualified-name="....." data-source-line="9" id="ent0006"><rect fill="none" height="214" rx="2.5" ry="2.5" style="stroke:#181818;stroke-width:1;" width="416.47" x="202.61" y="180"/><text fill="#000000" font-family="sans-serif" font-size="14" font-weight="700" lengthAdjust="spacing" textLength="50.9004" x="385.3948" y="194.9951">&#1042;&#1080;&#1076;&#1077;&#1086;</text></g><!--cluster ??????????????--><g class="cluster" data-qualified-name=".............." data-source-line="14" id="ent0010"><rect fill="none" height="214" rx="2.5" ry="2.5" style="stroke:#181818;stroke-width:1;" width="401.54" x="433.65" y="780"/><text fill="#000000" font-family="sans-serif" font-size="14" font-weight="700" lengthAdjust="spacing" textLength="134.3125" x="567.2638" y="794.9951">&#1042;&#1079;&#1072;&#1080;&#1084;&#1086;&#1076;&#1077;&#1081;&#1089;&#1090;&#1074;&#1080;&#1077;</text></g><!--cluster ?????????--><g class="cluster" data-qualified-name="........." data-source-line="19" id="ent0014"><rect fill="none" height="133" rx="2.5" ry="2.5" style="stroke:#181818;stroke-width:1;" width="158.76" x="448.87" y="434"/><text fill="#000000" font-family="sans-serif" font-size="14" font-weight="700" lengthAdjust="spacing" textLength="92.9961" x="481.752" y="448.9951">&#1052;&#1086;&#1076;&#1077;&#1088;&#1072;&#1094;&#1080;&#1103;</text></g><!--cluster ???????--><g class="cluster" data-qualified-name="......." data-source-line="22" id="ent0016"><rect fill="none" height="133" rx="2.5" ry="2.5" style="stroke:#181818;stroke-width:1;" width="160.04" x="448.23" y="607"/><text fill="#000000" font-family="sans-serif" font-size="14" font-weight="700" lengthAdjust="spacing" textLength="70.5127" x="492.9937" y="621.9951">&#1055;&#1077;&#1088;&#1077;&#1074;&#1086;&#1076;</text></g><!--cluster ???????????--><g class="cluster" data-qualified-name="..........." data-source-line="25" id="ent0018"><rect fill="none" height="133" rx="2.5" ry="2.5" style="stroke:#181818;stroke-width:1;" width="182.08" x="659.08" y="434"/><text fill="#000000" font-family="sans-serif" font-size="14" font-weight="700" lengthAdjust="spacing" textLength="109.7373" x="695.2513" y="448.9951">&#1059;&#1074;&#1077;&#1076;&#1086;&#1084;&#1083;&#1077;&#1085;&#1080;&#1103;</text></g><!--cluster ??????????--><g class="cluster" data-qualified-name=".........." data-source-line="28" id="ent0020"><rect fill="none" height="133" rx="2.5" ry="2.5" style="stroke:#181818;stroke-width:1;" width="170.9" x="442.8" y="7"/><text fill="#000000" font-family="sans-serif" font-size="14" font-weight="700" lengthAdjust="spacing" textLength="90.9316" x="482.7842" y="21.9951">&#1057;&#1090;&#1072;&#1090;&#1080;&#1089;&#1090;&#1080;&#1082;&#1072;</text></g><!--entity ???????????--><g class="entity" data-qualified-name="........................" data-source-line="5" id="ent0003"><rect fill="#F1F1F1" height="46.2969" rx="2.5" ry="2.5" style="stroke:#181818;stroke-width:0.5;" width="133.8779" x="31.86" y="640.85"/><rect fill="#F1F1F1" height="10" style="stroke:#181818;stroke-width:0.5;" width="15" x="145.7379" y="645.85"/><rect fill="#F1F1F1" height="2" style="stroke:#181818;stroke-width:0.5;" width="4" x="143.7379" y="647.85"/><rect fill="#F1F1F1" height="2" style="stroke:#181818;stroke-width:0.5;" width="4" x="143.7379" y="651.85"/><text fill="#000000" font-family="sans-serif" font-size="14" lengthAdjust="spacing" textLength="93.8779" x="46.86" y="673.8451">&#1056;&#1077;&#1075;&#1080;&#1089;&#1090;&#1088;&#1072;&#1094;&#1080;&#1103;</text></g><!--entity ???????????--><g class="entity" data-qualified-name="........................" data-source-line="6" id="ent0004"><rect fill="#F1F1F1" height="46.2969" rx="2.5" ry="2.5" style="stroke:#181818;stroke-width:0.5;" width="135.6074" x="31" y="559.85"/><rect fill="#F1F1F1" height="10" style="stroke:#181818;stroke-width:0.5;" width="15" x="146.6074" y="564.85"/><rect fill="#F1F1F1" height="2" style="stroke:#181818;stroke-width:0.5;" width="4" x="144.6074" y="566.85"/><rect fill="#F1F1F1" height="2" style="stroke:#181818;stroke-width:0.5;" width="4" x="144.6074" y="570.85"/><text fill="#000000" font-family="sans-serif" font-size="14" lengthAdjust="spacing" textLength="95.6074" x="46" y="592.8451">&#1040;&#1074;&#1090;&#1086;&#1088;&#1080;&#1079;&#1072;&#1094;&#1080;&#1103;</text></g><!--entity ????--><g class="entity" data-qualified-name="................." data-source-line="7" id="ent0005"><rect fill="#F1F1F1" height="46.2969" rx="2.5" ry="2.5" style="stroke:#181818;stroke-width:0.5;" width="75.0547" x="274.6" y="640.85"/><rect fill="#F1F1F1" height="10" style="stroke:#181818;stroke-width:0.5;" width="15" x="329.6547" y="645.85"/><rect fill="#F1F1F1" height="2" style="stroke:#181818;stroke-width:0.5;" width="4" x="327.6547" y="647.85"/><rect fill="#F1F1F1" height="2" style="stroke:#181818;stroke-width:0.5;" width="4" x="327.6547" y="651.85"/><text fill="#000000" font-family="sans-serif" font-size="14" lengthAdjust="spacing" textLength="35.0547" x="289.6" y="673.8451">&#1056;&#1086;&#1083;&#1080;</text></g><!--entity ????????--><g class="entity" data-qualified-name=".............." data-source-line="10" id="ent0007"><rect fill="#F1F1F1" height="46.2969" rx="2.5" ry="2.5" style="stroke:#181818;stroke-width:0.5;" width="106.5615" x="258.85" y="303.85"/><rect fill="#F1F1F1" height="10" style="stroke:#181818;stroke-width:0.5;" width="15" x="345.4115" y="308.85"/><rect fill="#F1F1F1" height="2" style="stroke:#181818;stroke-width:0.5;" width="4" x="343.4115" y="310.85"/><rect fill="#F1F1F1" height="2" style="stroke:#181818;stroke-width:0.5;" width="4" x="343.4115" y="314.85"/><text fill="#000000" font-family="sans-serif" font-size="14" lengthAdjust="spacing" textLength="66.5615" x="273.85" y="336.8451">&#1047;&#1072;&#1075;&#1088;&#1091;&#1079;&#1082;&#1072;</text></g><!--entity ???????????????--><g class="entity" data-qualified-name="....................." data-source-line="11" id="ent0008"><rect fill="#F1F1F1" height="46.2969" rx="2.5" ry="2.5" style="stroke:#181818;stroke-width:0.5;" width="171.0381" x="226.61" y="222.85"/><rect fill="#F1F1F1" height="10" style="stroke:#181818;stroke-width:0.5;" width="15" x="377.6481" y="227.85"/><rect fill="#F1F1F1" height="2" style="stroke:#181818;stroke-width:0.5;" width="4" x="375.6481" y="229.85"/><rect fill="#F1F1F1" height="2" style="stroke:#181818;stroke-width:0.5;" width="4" x="375.6481" y="233.85"/><text fill="#000000" font-family="sans-serif" font-size="14" lengthAdjust="spacing" textLength="131.0381" x="241.61" y="255.8451">&#1042;&#1086;&#1089;&#1087;&#1088;&#1086;&#1080;&#1079;&#1074;&#1077;&#1076;&#1077;&#1085;&#1080;&#1077;</text></g><!--entity ??????????--><g class="entity" data-qualified-name="................" data-source-line="12" id="ent0009"><rect fill="#F1F1F1" height="46.2969" rx="2.5" ry="2.5" style="stroke:#181818;stroke-width:0.5;" width="133.6592" x="461.42" y="303.85"/><rect fill="#F1F1F1" height="10" style="stroke:#181818;stroke-width:0.5;" width="15" x="575.0792" y="308.85"/><rect fill="#F1F1F1" height="2" style="stroke:#181818;stroke-width:0.5;" width="4" x="573.0792" y="310.85"/><rect fill="#F1F1F1" height="2" style="stroke:#181818;stroke-width:0.5;" width="4" x="573.0792" y="314.85"/><text fill="#000000" font-family="sans-serif" font-size="14" lengthAdjust="spacing" textLength="93.6592" x="476.42" y="336.8451">&#1052;&#1077;&#1090;&#1072;&#1076;&#1072;&#1085;&#1085;&#1099;&#1077;</text></g><!--entity ???????????--><g class="entity" data-qualified-name=".........................." data-source-line="15" id="ent0011"><rect fill="#F1F1F1" height="46.2969" rx="2.5" ry="2.5" style="stroke:#181818;stroke-width:0.5;" width="141.2129" x="457.65" y="903.85"/><rect fill="#F1F1F1" height="10" style="stroke:#181818;stroke-width:0.5;" width="15" x="578.8629" y="908.85"/><rect fill="#F1F1F1" height="2" style="stroke:#181818;stroke-width:0.5;" width="4" x="576.8629" y="910.85"/><rect fill="#F1F1F1" height="2" style="stroke:#181818;stroke-width:0.5;" width="4" x="576.8629" y="914.85"/><text fill="#000000" font-family="sans-serif" font-size="14" lengthAdjust="spacing" textLength="101.2129" x="472.65" y="936.8451">&#1050;&#1086;&#1084;&#1084;&#1077;&#1085;&#1090;&#1072;&#1088;&#1080;&#1080;</text></g><!--entity ?????--><g class="entity" data-qualified-name="...................." data-source-line="16" id="ent0012"><rect fill="#F1F1F1" height="46.2969" rx="2.5" ry="2.5" style="stroke:#181818;stroke-width:0.5;" width="85.7598" x="485.37" y="822.85"/><rect fill="#F1F1F1" height="10" style="stroke:#181818;stroke-width:0.5;" width="15" x="551.1298" y="827.85"/><rect fill="#F1F1F1" height="2" style="stroke:#181818;stroke-width:0.5;" width="4" x="549.1298" y="829.85"/><rect fill="#F1F1F1" height="2" style="stroke:#181818;stroke-width:0.5;" width="4" x="549.1298" y="833.85"/><text fill="#000000" font-family="sans-serif" font-size="14" lengthAdjust="spacing" textLength="45.7598" x="500.37" y="855.8451">&#1051;&#1072;&#1081;&#1082;&#1080;</text></g><!--entity ?????????--><g class="entity" data-qualified-name="........................" data-source-line="17" id="ent0013"><rect fill="#F1F1F1" height="46.2969" rx="2.5" ry="2.5" style="stroke:#181818;stroke-width:0.5;" width="122.1406" x="689.05" y="903.85"/><rect fill="#F1F1F1" height="10" style="stroke:#181818;stroke-width:0.5;" width="15" x="791.1906" y="908.85"/><rect fill="#F1F1F1" height="2" style="stroke:#181818;stroke-width:0.5;" width="4" x="789.1906" y="910.85"/><rect fill="#F1F1F1" height="2" style="stroke:#181818;stroke-width:0.5;" width="4" x="789.1906" y="914.85"/><text fill="#000000" font-family="sans-serif" font-size="14" lengthAdjust="spacing" textLength="82.1406" x="704.05" y="936.8451">&#1055;&#1083;&#1077;&#1081;&#1083;&#1080;&#1089;&#1090;&#1099;</text></g><!--entity ????????--><g class="entity" data-qualified-name=".................." data-source-line="20" id="ent0015"><rect fill="#F1F1F1" height="46.2969" rx="2.5" ry="2.5" style="stroke:#181818;stroke-width:0.5;" width="110.7656" x="472.87" y="496.85"/><rect fill="#F1F1F1" height="10" style="stroke:#181818;stroke-width:0.5;" width="15" x="563.6356" y="501.85"/><rect fill="#F1F1F1" height="2" style="stroke:#181818;stroke-width:0.5;" width="4" x="561.6356" y="503.85"/><rect fill="#F1F1F1" height="2" style="stroke:#181818;stroke-width:0.5;" width="4" x="561.6356" y="507.85"/><text fill="#000000" font-family="sans-serif" font-size="14" lengthAdjust="spacing" textLength="70.7656" x="487.87" y="529.8451">&#1055;&#1088;&#1086;&#1074;&#1077;&#1088;&#1082;&#1072;</text></g><!--entity ????????--><g class="entity" data-qualified-name="................" data-source-line="23" id="ent0017"><rect fill="#F1F1F1" height="46.2969" rx="2.5" ry="2.5" style="stroke:#181818;stroke-width:0.5;" width="112.0439" x="472.23" y="669.85"/><rect fill="#F1F1F1" height="10" style="stroke:#181818;stroke-width:0.5;" width="15" x="564.2739" y="674.85"/><rect fill="#F1F1F1" height="2" style="stroke:#181818;stroke-width:0.5;" width="4" x="562.2739" y="676.85"/><rect fill="#F1F1F1" height="2" style="stroke:#181818;stroke-width:0.5;" width="4" x="562.2739" y="680.85"/><text fill="#000000" font-family="sans-serif" font-size="14" lengthAdjust="spacing" textLength="72.0439" x="487.23" y="702.8451">&#1057;&#1091;&#1073;&#1090;&#1080;&#1090;&#1088;&#1099;</text></g><!--entity ??????????--><g class="entity" data-qualified-name="......................" data-source-line="26" id="ent0019"><rect fill="#F1F1F1" height="46.2969" rx="2.5" ry="2.5" style="stroke:#181818;stroke-width:0.5;" width="134.0762" x="683.08" y="496.85"/><rect fill="#F1F1F1" height="10" style="stroke:#181818;stroke-width:0.5;" width="15" x="797.1562" y="501.85"/><rect fill="#F1F1F1" height="2" style="stroke:#181818;stroke-width:0.5;" width="4" x="795.1562" y="503.85"/><rect fill="#F1F1F1" height="2" style="stroke:#181818;stroke-width:0.5;" width="4" x="795.1562" y="507.85"/><text fill="#000000" font-family="sans-serif" font-size="14" lengthAdjust="spacing" textLength="94.0762" x="698.08" y="529.8451">&#1054;&#1087;&#1086;&#1074;&#1077;&#1097;&#1077;&#1085;&#1080;&#1103;</text></g><!--entity ?????????--><g class="entity" data-qualified-name="...................." data-source-line="29" id="ent0021"><rect fill="#F1F1F1" height="46.2969" rx="2.5" ry="2.5" style="stroke:#181818;stroke-width:0.5;" width="122.8994" x="466.8" y="69.85"/><rect fill="#F1F1F1" height="10" style="stroke:#181818;stroke-width:0.5;" width="15" x="569.6994" y="74.85"/><rect fill="#F1F1F1" height="2" style="stroke:#181818;stroke-width:0.5;" width="4" x="567.6994" y="76.85"/><rect fill="#F1F1F1" height="2" style="stroke:#181818;stroke-width:0.5;" width="4" x="567.6994" y="80.85"/><text fill="#000000" font-family="sans-serif" font-size="14" lengthAdjust="spacing" textLength="82.8994" x="481.8" y="102.8451">&#1055;&#1088;&#1086;&#1089;&#1084;&#1086;&#1090;&#1088;&#1099;</text></g><!--link ???????????? to ?????--><g class="link" data-entity-1="ent0002" data-entity-2="ent0006" data-link-type="dependency" data-source-line="33" id="lnk22"><path d="M200.0231,516.7626 C200.1965,516.4547 200.3704,516.1471 200.5449,515.8396 C200.8938,515.2246 201.2451,514.6106 201.5986,513.9974 C207.2544,504.1871 213.4794,494.6098 220.0025,485.3933 C233.0488,466.9603 247.2875,449.9706 260.55,435.4462 C273.8125,420.9219 286.0988,408.8628 295.24,400.2911 C297.5253,398.1482 299.6141,396.2232 301.4724,394.5322 C301.5885,394.4265 301.7038,394.3217 301.8181,394.2178 C301.8753,394.1659 297.4892,398.1465 297.5459,398.095" fill="none" id="&#1055;&#1086;&#1083;&#1100;&#1079;&#1086;&#1074;&#1072;&#1090;&#1077;&#1083;&#1080;-to-&#1042;&#1080;&#1076;&#1077;&#1086;" style="stroke:#181818;stroke-width:1;"/><polygon fill="#181818" points="301.9889,394.0627,292.6362,397.1492,298.2864,397.423,298.0126,403.0732,301.9889,394.0627" style="stroke:#181818;stroke-width:1;"/></g><!--link ????? to ?????????--><g class="link" data-entity-1="ent0006" data-entity-2="ent0014" data-link-type="dependency" data-source-line="34" id="lnk23"><path d="M336.4059,394.1528 C336.934,394.3378 337.4694,394.5254 338.0118,394.7154 C339.0967,395.0955 340.2098,395.4854 341.3497,395.8847 C343.6294,396.6833 346.0161,397.5194 348.4978,398.3887 C368.3519,405.3437 394.2913,414.43 420.2275,423.515 C426.7116,425.7863 433.1954,428.0574 439.584,430.2952 C442.7782,431.4141 445.9487,432.5246 449.0834,433.6226 C449.2793,433.6913 443.8124,431.7763 444.0081,431.8449" fill="none" id="&#1042;&#1080;&#1076;&#1077;&#1086;-to-&#1052;&#1086;&#1076;&#1077;&#1088;&#1072;&#1094;&#1080;&#1103;" style="stroke:#181818;stroke-width:1;"/><polygon fill="#181818" points="449.6707,433.8284,442.4991,427.078,444.9518,432.1755,439.8544,434.6282,449.6707,433.8284" style="stroke:#181818;stroke-width:1;"/></g><!--link ????????? to ???????????--><g class="link" data-entity-1="ent0014" data-entity-2="ent0018" data-link-type="dependency" data-source-line="35" id="lnk24"><path d="M608.3902,461 C608.7914,461 609.1932,461 609.5957,461 C612.815,461 616.0709,461 619.3511,461 C625.9117,461 632.5697,461 639.2275,461 C642.5564,461 645.8853,461 649.2019,461 C650.8602,461 652.5154,461 654.166,461 C654.9914,461 655.8155,461 656.6384,461 C657.0498,461 657.4609,461 657.8716,461 C658.077,461 652.2822,461 652.4874,461" fill="none" id="&#1052;&#1086;&#1076;&#1077;&#1088;&#1072;&#1094;&#1080;&#1103;-to-&#1059;&#1074;&#1077;&#1076;&#1086;&#1084;&#1083;&#1077;&#1085;&#1080;&#1103;" style="stroke:#181818;stroke-width:1;"/><polygon fill="#181818" points="658.4874,461,649.4874,457,653.4874,461,649.4874,465,658.4874,461" style="stroke:#181818;stroke-width:1;"/></g><!--link ???????????? to ??????????????--><g class="link" data-entity-1="ent0002" data-entity-2="ent0010" data-link-type="dependency" data-source-line="36" id="lnk25"><path d="M107.4643,731.1932 C107.7575,731.5022 108.0588,731.8192 108.368,732.1441 C113.3157,737.3424 120.3032,744.5632 129.0552,753.3033 C146.5591,770.7834 171.1206,794.3406 200.5363,819.9488 C259.3675,871.165 337.615,930.585 417.65,966 C420.4356,967.2331 423.2934,968.3902 426.2038,969.476 C427.659,970.0189 429.1274,970.544 430.6065,971.0518 C431.3461,971.3057 432.0883,971.5553 432.833,971.8006 C433.0191,971.862 427.5012,970.0626 427.6876,970.1234" fill="none" id="&#1055;&#1086;&#1083;&#1100;&#1079;&#1086;&#1074;&#1072;&#1090;&#1077;&#1083;&#1080;-to-&#1042;&#1079;&#1072;&#1080;&#1084;&#1086;&#1076;&#1077;&#1081;&#1089;&#1090;&#1074;&#1080;&#1077;" style="stroke:#181818;stroke-width:1;"/><polygon fill="#181818" points="433.3919,971.9838,426.0757,965.3904,428.6383,970.4335,423.5952,972.9961,433.3919,971.9838" style="stroke:#181818;stroke-width:1;"/></g><!--link ????? to ??????????--><g class="link" data-entity-1="ent0006" data-entity-2="ent0020" data-link-type="dependency" data-source-line="37" id="lnk26"><path d="M404.271,179.3043 C404.0957,177.3078 403.9249,175.3174 403.7597,173.3341 C403.4292,169.3676 403.1207,165.43 402.8413,161.5307 C401.7238,145.9334 401.0721,130.9489 401.3414,117.1809 C401.88,89.645 406.1025,66.975 417.65,54 C421.7,49.4475 426.4128,45.7125 431.564,42.6628 C434.1396,41.1379 436.8248,39.7843 439.5915,38.5855 C440.2832,38.2859 440.98,37.9958 441.6814,37.7152 C442.0321,37.5749 436.7832,39.5889 437.1362,39.4533" fill="none" id="&#1042;&#1080;&#1076;&#1077;&#1086;-to-&#1057;&#1090;&#1072;&#1090;&#1080;&#1089;&#1090;&#1080;&#1082;&#1072;" style="stroke:#181818;stroke-width:1;"/><polygon fill="#181818" points="442.737,37.3013,432.9012,36.7954,438.0697,39.0946,435.7704,44.2631,442.737,37.3013" style="stroke:#181818;stroke-width:1;"/></g><!--link ????? to ???????--><g class="link" data-entity-1="ent0006" data-entity-2="ent0016" data-link-type="dependency" data-source-line="38" id="lnk27"><path d="M316.5417,394.1809 C316.5937,394.3022 316.6463,394.4248 316.6994,394.5486 C317.1246,395.5388 317.5865,396.6069 318.0843,397.7484 C319.08,400.0315 320.2196,402.6086 321.4977,405.4445 C326.6097,416.7884 333.9356,432.2756 343.1188,449.6688 C361.485,484.455 387.28,526.865 417.65,559 C427.625,569.5575 439.3281,579.4606 451.3047,588.3922 C457.293,592.858 463.3496,597.0809 469.2928,601.0212 C472.2644,602.9914 470.1325,601.6903 473.0247,603.5142" fill="none" id="&#1042;&#1080;&#1076;&#1077;&#1086;-to-&#1055;&#1077;&#1088;&#1077;&#1074;&#1086;&#1076;" style="stroke:#181818;stroke-width:1;"/><polygon fill="#181818" points="478.0997,606.7149,472.6209,598.5306,473.8705,604.0477,468.3534,605.2973,478.0997,606.7149" style="stroke:#181818;stroke-width:1;"/></g><?plantuml-src ZL91IiD05DtFAOPkNFKANiAbT15ghA4nBJ4RaK9RGP0AbMu4BQR52yJKuDIswHN-tCWtCmbnD8faaSn__xtt_vjSTBsWxuJEEUyxxQxJSO-YIz_beTkEdA3ZkyntJoCUzNZeTSuYVk8fnEi5Z1Nzl44nvRIHT_IETqg975D66n8DViKuFwO5ZYiISYJ7SWZu1j_JbeRkAKLtZh80su8MIfH4Yms-ECtGzmQvlDH-e8HMSYYlGV-Wn51dK1pH7ggvrat1KAmTJfbfcLC6umJb1EMTd2Z0Ti8ywDz2Gt7NQdmeGQ7qVWIqnGDXfQMN44R-2Tmr1YgECJQ1XDf7fp2nlUR6emgdT8Zr2gc6z7O3AtLLpW23NJAMIE8LqmYLzNUVbo89DVR6v55vFTE-yBej8Pkzr4kEpGfO5GDPSo9oX5NviWEEKYgdI5AmF_wIPlFGkbfctRD1VqR4QdCptVMB_cU6to-zRggwIEhwxAlw1000?></g></svg>