<svg xmlns="http://www.w3.org/2000/svg" xmlns:xlink="http://www.w3.org/1999/xlink" contentStyleType="text/css" data-diagram-type="ACTIVITY" height="859px" preserveAspectRatio="none" style="width:679px;height:859px;background:#FFFFFF;" version="1.1" viewBox="0 0 679 859" width="679px" zoomAndPan="magnify"><?plantuml 1.2026.3beta6?><defs/><g><g class="title" data-source-line="1"><text fill="#000000" font-family="sans-serif" font-size="14" font-weight="700" lengthAdjust="spacing" textLength="407.7979" x="134.7163" y="32.9951">&#1056;&#1080;&#1089;&#1091;&#1085;&#1086;&#1082; 2b &#8212; TO-BE: &#1079;&#1072;&#1075;&#1088;&#1091;&#1079;&#1082;&#1072; &#1074;&#1080;&#1076;&#1077;&#1086; &#1080; &#1084;&#1086;&#1076;&#1077;&#1088;&#1072;&#1094;&#1080;&#1103;</text></g><ellipse cx="324.0479" cy="62.2969" fill="#222222" rx="10" ry="10" style="stroke:#222222;stroke-width:1;"/><rect fill="#F1F1F1" height="33.9688" rx="12.5" ry="12.5" style="stroke:#181818;stroke-width:0.5;" width="339.4531" x="154.3213" y="92.2969"/><text fill="#000000" font-family="sans-serif" font-size="12" lengthAdjust="spacing" textLength="319.4531" x="164.3213" y="113.4355">1. &#1055;&#1086;&#1083;&#1100;&#1079;&#1086;&#1074;&#1072;&#1090;&#1077;&#1083;&#1100; &#1072;&#1074;&#1090;&#1086;&#1088;&#1080;&#1079;&#1091;&#1077;&#1090;&#1089;&#1103; (&#1072;&#1085;&#1086;&#1085;&#1080;&#1084;&#1085;&#1099;&#1081; &#1090;&#1086;&#1082;&#1077;&#1085;)</text><rect fill="#F1F1F1" height="33.9688" rx="12.5" ry="12.5" style="stroke:#181818;stroke-width:0.5;" width="391.2676" x="128.4141" y="146.2656"/><text fill="#000000" font-family="sans-serif" font-size="12" lengthAdjust="spacing" textLength="371.2676" x="138.4141" y="167.4043">2. &#1047;&#1072;&#1087;&#1086;&#1083;&#1085;&#1103;&#1077;&#1090; &#1092;&#1086;&#1088;&#1084;&#1091;: &#1085;&#1072;&#1079;&#1074;&#1072;&#1085;&#1080;&#1077;, &#1086;&#1087;&#1080;&#1089;&#1072;&#1085;&#1080;&#1077;, &#1082;&#1072;&#1090;&#1077;&#1075;&#1086;&#1088;&#1080;&#1103;, &#1090;&#1077;&#1075;&#1080;</text><rect fill="#F1F1F1" height="33.9688" rx="12.5" ry="12.5" style="stroke:#181818;stroke-width:0.5;" width="178.6602" x="234.7178" y="200.2344"/><text fill="#000000" font-family="sans-serif" font-size="12" lengthAdjust="spacing" textLength="158.6602" x="244.7178" y="221.373">3. &#1047;&#1072;&#1075;&#1088;&#1091;&#1078;&#1072;&#1077;&#1090; &#1074;&#1080;&#1076;&#1077;&#1086;&#1092;&#1072;&#1081;&#1083;</text><rect fill="#F1F1F1" height="33.9688" rx="12.5" ry="12.5" style="stroke:#181818;stroke-width:0.5;" width="309.5234" x="169.2861" y="254.2031"/><text fill="#000000" font-family="sans-serif" font-size="12" lengthAdjust="spacing" textLength="289.5234" x="179.2861" y="275.3418">4. &#1057;&#1080;&#1089;&#1090;&#1077;&#1084;&#1072; &#1089;&#1090;&#1072;&#1074;&#1080;&#1090; &#1092;&#1072;&#1081;&#1083; &#1074; &#1086;&#1095;&#1077;&#1088;&#1077;&#1076;&#1100; &#1086;&#1073;&#1088;&#1072;&#1073;&#1086;&#1090;&#1082;&#1080;</text><rect fill="#F1F1F1" height="47.9375" rx="12.5" ry="12.5" style="stroke:#181818;stroke-width:0.5;" width="261.9512" x="193.0723" y="308.1719"/><text fill="#000000" font-family="sans-serif" font-size="12" lengthAdjust="spacing" textLength="241.9512" x="203.0723" y="329.3105">5. &#1042;&#1099;&#1087;&#1086;&#1083;&#1085;&#1103;&#1102;&#1090;&#1089;&#1103; &#1072;&#1089;&#1080;&#1085;&#1093;&#1088;&#1086;&#1085;&#1085;&#1099;&#1077; &#1079;&#1072;&#1076;&#1072;&#1095;&#1080;:</text><text fill="#000000" font-family="sans-serif" font-size="12" lengthAdjust="spacing" textLength="216.2051" x="214.5156" y="343.2793">- &#1082;&#1086;&#1085;&#1074;&#1077;&#1088;&#1090;&#1072;&#1094;&#1080;&#1103; &#1074; &#1088;&#1072;&#1079;&#1085;&#1099;&#1077; &#1073;&#1080;&#1090;&#1088;&#1077;&#1081;&#1090;&#1099;</text><rect fill="#F1F1F1" height="33.9688" rx="12.5" ry="12.5" style="stroke:#181818;stroke-width:0.5;" width="367.6367" x="140.2295" y="376.1094"/><text fill="#000000" font-family="sans-serif" font-size="12" lengthAdjust="spacing" textLength="347.6367" x="150.2295" y="397.248">&#1080;&#1079;&#1074;&#1083;&#1077;&#1095;&#1077;&#1085;&#1080;&#1077; &#1084;&#1077;&#1090;&#1072;&#1076;&#1072;&#1085;&#1085;&#1099;&#1093; (&#1076;&#1083;&#1080;&#1090;&#1077;&#1083;&#1100;&#1085;&#1086;&#1089;&#1090;&#1100;, &#1088;&#1072;&#1079;&#1088;&#1077;&#1096;&#1077;&#1085;&#1080;&#1077;);</text><rect fill="#F1F1F1" height="33.9688" rx="12.5" ry="12.5" style="stroke:#181818;stroke-width:0.5;" width="232.0332" x="208.0313" y="430.0781"/><text fill="#000000" font-family="sans-serif" font-size="12" lengthAdjust="spacing" textLength="212.0332" x="218.0313" y="451.2168">&#1075;&#1077;&#1085;&#1077;&#1088;&#1072;&#1094;&#1080;&#1103; &#1087;&#1088;&#1077;&#1074;&#1100;&#1102; (&#1089;&#1082;&#1088;&#1080;&#1085;&#1096;&#1086;&#1090;&#1086;&#1074;);</text><rect fill="#F1F1F1" height="33.9688" rx="12.5" ry="12.5" style="stroke:#181818;stroke-width:0.5;" width="318.6934" x="164.7012" y="484.0469"/><text fill="#000000" font-family="sans-serif" font-size="12" lengthAdjust="spacing" textLength="298.6934" x="174.7012" y="505.1855">&#1072;&#1074;&#1090;&#1086;&#1084;&#1072;&#1090;&#1080;&#1095;&#1077;&#1089;&#1082;&#1086;&#1077; &#1089;&#1086;&#1079;&#1076;&#1072;&#1085;&#1080;&#1077; &#1089;&#1091;&#1073;&#1090;&#1080;&#1090;&#1088;&#1086;&#1074; (whisper);</text><rect fill="#F1F1F1" height="33.9688" rx="12.5" ry="12.5" style="stroke:#181818;stroke-width:0.5;" width="309.9863" x="169.0547" y="538.0156"/><text fill="#000000" font-family="sans-serif" font-size="12" lengthAdjust="spacing" textLength="289.9863" x="179.0547" y="559.1543">6. &#1042;&#1089;&#1077; &#1084;&#1077;&#1090;&#1072;&#1076;&#1072;&#1085;&#1085;&#1099;&#1077; &#1089;&#1086;&#1093;&#1088;&#1072;&#1085;&#1103;&#1102;&#1090;&#1089;&#1103; &#1074; PostgreSQL</text><rect fill="#F1F1F1" height="33.9688" rx="12.5" ry="12.5" style="stroke:#181818;stroke-width:0.5;" width="261.3711" x="193.3623" y="591.9844"/><text fill="#000000" font-family="sans-serif" font-size="12" lengthAdjust="spacing" textLength="241.3711" x="203.3623" y="613.123">7. &#1042;&#1080;&#1076;&#1077;&#1086; &#1086;&#1090;&#1087;&#1088;&#1072;&#1074;&#1083;&#1103;&#1077;&#1090;&#1089;&#1103; &#1085;&#1072; &#1084;&#1086;&#1076;&#1077;&#1088;&#1072;&#1094;&#1080;&#1102;</text><polygon fill="#F1F1F1" points="259.8499,645.9531,388.2458,645.9531,400.2458,657.9531,388.2458,669.9531,259.8499,669.9531,247.8499,657.9531,259.8499,645.9531" style="stroke:#181818;stroke-width:0.5;"/><text fill="#000000" font-family="sans-serif" font-size="11" lengthAdjust="spacing" textLength="128.396" x="259.8499" y="661.7612">&#1052;&#1086;&#1076;&#1077;&#1088;&#1072;&#1090;&#1086;&#1088; &#1086;&#1076;&#1086;&#1073;&#1088;&#1103;&#1077;&#1090;?</text><text fill="#000000" font-family="sans-serif" font-size="11" lengthAdjust="spacing" textLength="14.3462" x="233.5037" y="655.3589">&#1076;&#1072;</text><text fill="#000000" font-family="sans-serif" font-size="11" lengthAdjust="spacing" textLength="20.3672" x="400.2458" y="655.3589">&#1085;&#1077;&#1090;</text><rect fill="#F1F1F1" height="33.9688" rx="12.5" ry="12.5" style="stroke:#181818;stroke-width:0.5;" width="284.4805" x="16" y="679.9531"/><text fill="#000000" font-family="sans-serif" font-size="12" lengthAdjust="spacing" textLength="264.4805" x="26" y="701.0918">8a. &#1042;&#1080;&#1076;&#1077;&#1086; &#1087;&#1091;&#1073;&#1083;&#1080;&#1082;&#1091;&#1077;&#1090;&#1089;&#1103; &#1074; &#1086;&#1073;&#1097;&#1077;&#1084; &#1082;&#1072;&#1090;&#1072;&#1083;&#1086;&#1075;&#1077;</text><rect fill="#F1F1F1" height="33.9688" rx="12.5" ry="12.5" style="stroke:#181818;stroke-width:0.5;" width="230.8438" x="42.8184" y="733.9219"/><text fill="#000000" font-family="sans-serif" font-size="12" lengthAdjust="spacing" textLength="210.8438" x="52.8184" y="755.0605">8b. &#1040;&#1074;&#1090;&#1086;&#1088; &#1087;&#1086;&#1083;&#1091;&#1095;&#1072;&#1077;&#1090; &#1091;&#1074;&#1077;&#1076;&#1086;&#1084;&#1083;&#1077;&#1085;&#1080;&#1077;</text><rect fill="#F1F1F1" height="33.9688" rx="12.5" ry="12.5" style="stroke:#181818;stroke-width:0.5;" width="305.6035" x="337.0537" y="679.9531"/><text fill="#000000" font-family="sans-serif" font-size="12" lengthAdjust="spacing" textLength="285.6035" x="347.0537" y="701.0918">8c. &#1042;&#1080;&#1076;&#1077;&#1086; &#1086;&#1090;&#1082;&#1083;&#1086;&#1085;&#1103;&#1077;&#1090;&#1089;&#1103; &#1089; &#1091;&#1082;&#1072;&#1079;&#1072;&#1085;&#1080;&#1077;&#1084; &#1087;&#1088;&#1080;&#1095;&#1080;&#1085;&#1099;</text><rect fill="#F1F1F1" height="33.9688" rx="12.5" ry="12.5" style="stroke:#181818;stroke-width:0.5;" width="338.75" x="320.4805" y="733.9219"/><text fill="#000000" font-family="sans-serif" font-size="12" lengthAdjust="spacing" textLength="318.75" x="330.4805" y="755.0605">8d. &#1040;&#1074;&#1090;&#1086;&#1088; &#1084;&#1086;&#1078;&#1077;&#1090; &#1079;&#1072;&#1075;&#1088;&#1091;&#1079;&#1080;&#1090;&#1100; &#1080;&#1089;&#1087;&#1088;&#1072;&#1074;&#1083;&#1077;&#1085;&#1085;&#1091;&#1102; &#1074;&#1077;&#1088;&#1089;&#1080;&#1102;</text><polygon fill="#F1F1F1" points="324.0479,773.8906,336.0479,785.8906,324.0479,797.8906,312.0479,785.8906,324.0479,773.8906" style="stroke:#181818;stroke-width:0.5;"/><ellipse cx="324.0479" cy="828.8906" fill="none" rx="11" ry="11" style="stroke:#222222;stroke-width:1;"/><ellipse cx="324.0479" cy="828.8906" fill="#222222" rx="6" ry="6" style="stroke:#222222;stroke-width:1;"/><line style="stroke:#181818;stroke-width:1;" x1="324.0479" x2="324.0479" y1="72.2969" y2="92.2969"/><polygon fill="#181818" points="320.0479,82.2969,324.0479,92.2969,328.0479,82.2969,324.0479,86.2969" style="stroke:#181818;stroke-width:1;"/><line style="stroke:#181818;stroke-width:1;" x1="324.0479" x2="324.0479" y1="126.2656" y2="146.2656"/><polygon fill="#181818" points="320.0479,136.2656,324.0479,146.2656,328.0479,136.2656,324.0479,140.2656" style="stroke:#181818;stroke-width:1;"/><line style="stroke:#181818;stroke-width:1;" x1="324.0479" x2="324.0479" y1="180.2344" y2="200.2344"/><polygon fill="#181818" points="320.0479,190.2344,324.0479,200.2344,328.0479,190.2344,324.0479,194.2344" style="stroke:#181818;stroke-width:1;"/><line style="stroke:#181818;stroke-width:1;" x1="324.0479" x2="324.0479" y1="234.2031" y2="254.2031"/><polygon fill="#181818" points="320.0479,244.2031,324.0479,254.2031,328.0479,244.2031,324.0479,248.2031" style="stroke:#181818;stroke-width:1;"/><line style="stroke:#181818;stroke-width:1;" x1="324.0479" x2="324.0479" y1="288.1719" y2="308.1719"/><polygon fill="#181818" points="320.0479,298.1719,324.0479,308.1719,328.0479,298.1719,324.0479,302.1719" style="stroke:#181818;stroke-width:1;"/><line style="stroke:#181818;stroke-width:1;" x1="324.0479" x2="324.0479" y1="356.1094" y2="376.1094"/><polygon fill="#181818" points="320.0479,366.1094,324.0479,376.1094,328.0479,366.1094,324.0479,370.1094" style="stroke:#181818;stroke-width:1;"/><line style="stroke:#181818;stroke-width:1;" x1="324.0479" x2="324.0479" y1="410.0781" y2="430.0781"/><polygon fill="#181818" points="320.0479,420.0781,324.0479,430.0781,328.0479,420.0781,324.0479,424.0781" style="stroke:#181818;stroke-width:1;"/><line style="stroke:#181818;stroke-width:1;" x1="324.0479" x2="324.0479" y1="464.0469" y2="484.0469"/><polygon fill="#181818" points="320.0479,474.0469,324.0479,484.0469,328.0479,474.0469,324.0479,478.0469" style="stroke:#181818;stroke-width:1;"/><line style="stroke:#181818;stroke-width:1;" x1="324.0479" x2="324.0479" y1="518.0156" y2="538.0156"/><polygon fill="#181818" points="320.0479,528.0156,324.0479,538.0156,328.0479,528.0156,324.0479,532.0156" style="stroke:#181818;stroke-width:1;"/><line style="stroke:#181818;stroke-width:1;" x1="324.0479" x2="324.0479" y1="571.9844" y2="591.9844"/><polygon fill="#181818" points="320.0479,581.9844,324.0479,591.9844,328.0479,581.9844,324.0479,585.9844" style="stroke:#181818;stroke-width:1;"/><line style="stroke:#181818;stroke-width:1;" x1="158.2402" x2="158.2402" y1="713.9219" y2="733.9219"/><polygon fill="#181818" points="154.2402,723.9219,158.2402,733.9219,162.2402,723.9219,158.2402,727.9219" style="stroke:#181818;stroke-width:1;"/><line style="stroke:#181818;stroke-width:1;" x1="489.8555" x2="489.8555" y1="713.9219" y2="733.9219"/><polygon fill="#181818" points="485.8555,723.9219,489.8555,733.9219,493.8555,723.9219,489.8555,727.9219" style="stroke:#181818;stroke-width:1;"/><line style="stroke:#181818;stroke-width:1;" x1="247.8499" x2="158.2402" y1="657.9531" y2="657.9531"/><line style="stroke:#181818;stroke-width:1;" x1="158.2402" x2="158.2402" y1="657.9531" y2="679.9531"/><polygon fill="#181818" points="154.2402,669.9531,158.2402,679.9531,162.2402,669.9531,158.2402,673.9531" style="stroke:#181818;stroke-width:1;"/><line style="stroke:#181818;stroke-width:1;" x1="400.2458" x2="489.8555" y1="657.9531" y2="657.9531"/><line style="stroke:#181818;stroke-width:1;" x1="489.8555" x2="489.8555" y1="657.9531" y2="679.9531"/><polygon fill="#181818" points="485.8555,669.9531,489.8555,679.9531,493.8555,669.9531,489.8555,673.9531" style="stroke:#181818;stroke-width:1;"/><line style="stroke:#181818;stroke-width:1;" x1="158.2402" x2="158.2402" y1="767.8906" y2="785.8906"/><line style="stroke:#181818;stroke-width:1;" x1="158.2402" x2="312.0479" y1="785.8906" y2="785.8906"/><polygon fill="#181818" points="302.0479,781.8906,312.0479,785.8906,302.0479,789.8906,306.0479,785.8906" style="stroke:#181818;stroke-width:1;"/><line style="stroke:#181818;stroke-width:1;" x1="489.8555" x2="489.8555" y1="767.8906" y2="785.8906"/><line style="stroke:#181818;stroke-width:1;" x1="489.8555" x2="336.0479" y1="785.8906" y2="785.8906"/><polygon fill="#181818" points="346.0479,781.8906,336.0479,785.8906,346.0479,789.8906,342.0479,785.8906" style="stroke:#181818;stroke-width:1;"/><line style="stroke:#181818;stroke-width:1;" x1="324.0479" x2="324.0479" y1="625.9531" y2="645.9531"/><polygon fill="#181818" points="320.0479,635.9531,324.0479,645.9531,328.0479,635.9531,324.0479,639.9531" style="stroke:#181818;stroke-width:1;"/><line style="stroke:#181818;stroke-width:1;" x1="324.0479" x2="324.0479" y1="797.8906" y2="817.8906"/><polygon fill="#181818" points="320.0479,807.8906,324.0479,817.8906,328.0479,807.8906,324.0479,811.8906" style="stroke:#181818;stroke-width:1;"/><?plantuml-src RLJBRjDG4DtxAsQPI2aIvQbaWOJ43WaG_41BNHgfQgl44jiueGIKA448YGqIvGyS9wuT9xP_OUuly2MScMld0QnitpjpvimvC_RQthbBVCE9ySs0CyuvfSDZ-jtxHczU73nzrYIEEU2vwU4wvfG3uf0JNd34EN52l4OElaoF0_CHE5F7wNf77Szfthr3_1EtApD6QewymFIHXsy2PeYF76a9ny2EJ1yKfbJ3ZT38SBxcp8nuIHA8qX5dzPRJF0JiTqGL0es8gUII-Q1WQpC0vGpNiTHJcAX122sanvsJj6GpjoJCj47bTu8YzyeYjl5Rl4cHRUie5_2ILmYzZz1VAg2ahw6GlWOIR8bf9991mmnLgeWN8aBECz6DPxZeWv5KVW2uhsXxqvwPbDA0i8_wcRb6aYWawaJMe0KkXvmq7I8waERaFfHQGiKQ8moqN5nbpeIXqbdYEMgLsOcAjqBsK4GNmSJdIBjQg8O0CDSmQu6mf79LZ9FUpRXH5X9iywa2gLS5vdgoCpF4XT88pTXCg8O-KvsC3CcvsXzkail94QNnJ5HHNpkEe3mUSSanqGFODzEulgeMKktzMRjxvNPabXwgsFv_-olXLErWtuYGNbvslNSTz_Mhvq1v92ZRfH32XIP1H3kUDYsJxVbxNoOjftqA9N_idEjYa1xeY5YG9tNopjmBLJseGutcuwFzoeKqAuv0lkrAwU01vhECPpNu0S9oCQAbGCS0-bAj9DdXCmDeQmSVQA4ChSg-glniEUvvrmKVyR9l6RtzLujKIsKxIXXV45CTnT8fOLRe8WxLzv7bTRBFIyIxjQku-riISx5Eik0RuPLaXXucL2w2RzLsBqxQf_X7NLxz0G00?></g></svg>