<svg xmlns="http://www.w3.org/2000/svg" xmlns:xlink="http://www.w3.org/1999/xlink" contentStyleType="text/css" data-diagram-type="ACTIVITY" height="737px" preserveAspectRatio="none" style="width:705px;height:737px;background:#FFFFFF;" version="1.1" viewBox="0 0 705 737" width="705px" zoomAndPan="magnify"><?plantuml 1.2026.3beta6?><defs/><g><g class="title" data-source-line="1"><text fill="#000000" font-family="sans-serif" font-size="14" font-weight="700" lengthAdjust="spacing" textLength="445.4912" x="128.8335" y="32.9951">&#1056;&#1080;&#1089;&#1091;&#1085;&#1086;&#1082; 2a &#8212; TO-BE: &#1087;&#1088;&#1086;&#1089;&#1084;&#1086;&#1090;&#1088; &#1074;&#1080;&#1076;&#1077;&#1086; &#1080; &#1086;&#1073;&#1088;&#1072;&#1090;&#1085;&#1072;&#1103; &#1089;&#1074;&#1103;&#1079;&#1100;</text></g><ellipse cx="343.5815" cy="62.2969" fill="#222222" rx="10" ry="10" style="stroke:#222222;stroke-width:1;"/><rect fill="#F1F1F1" height="33.9688" rx="12.5" ry="12.5" style="stroke:#181818;stroke-width:0.5;" width="278.2285" x="204.4673" y="92.2969"/><text fill="#000000" font-family="sans-serif" font-size="12" lengthAdjust="spacing" textLength="258.2285" x="214.4673" y="113.4355">1. &#1055;&#1086;&#1083;&#1100;&#1079;&#1086;&#1074;&#1072;&#1090;&#1077;&#1083;&#1100; &#1086;&#1090;&#1082;&#1088;&#1099;&#1074;&#1072;&#1077;&#1090; &#1087;&#1088;&#1080;&#1083;&#1086;&#1078;&#1077;&#1085;&#1080;&#1077;</text><rect fill="#F1F1F1" height="33.9688" rx="12.5" ry="12.5" style="stroke:#181818;stroke-width:0.5;" width="415.5371" x="135.813" y="146.2656"/><text fill="#000000" font-family="sans-serif" font-size="12" lengthAdjust="spacing" textLength="395.5371" x="145.813" y="167.4043">2. &#1055;&#1088;&#1086;&#1089;&#1084;&#1072;&#1090;&#1088;&#1080;&#1074;&#1072;&#1077;&#1090; &#1082;&#1072;&#1090;&#1072;&#1083;&#1086;&#1075; &#1074;&#1080;&#1076;&#1077;&#1086; (&#1087;&#1088;&#1077;&#1074;&#1100;&#1102;, &#1085;&#1072;&#1079;&#1074;&#1072;&#1085;&#1080;&#1077;, &#1088;&#1077;&#1081;&#1090;&#1080;&#1085;&#1075;)</text><rect fill="#F1F1F1" height="33.9688" rx="12.5" ry="12.5" style="stroke:#181818;stroke-width:0.5;" width="139.2207" x="273.9712" y="200.2344"/><text fill="#000000" font-family="sans-serif" font-size="12" lengthAdjust="spacing" textLength="119.2207" x="283.9712" y="221.373">3. &#1042;&#1099;&#1073;&#1080;&#1088;&#1072;&#1077;&#1090; &#1074;&#1080;&#1076;&#1077;&#1086;</text><rect fill="#F1F1F1" height="33.9688" rx="12.5" ry="12.5" style="stroke:#181818;stroke-width:0.5;" width="373.4902" x="156.8364" y="254.2031"/><text fill="#000000" font-family="sans-serif" font-size="12" lengthAdjust="spacing" textLength="353.4902" x="166.8364" y="275.3418">4. &#1057;&#1080;&#1089;&#1090;&#1077;&#1084;&#1072; &#1085;&#1072;&#1095;&#1080;&#1085;&#1072;&#1077;&#1090; &#1087;&#1086;&#1090;&#1086;&#1082;&#1086;&#1074;&#1086;&#1077; &#1074;&#1086;&#1089;&#1087;&#1088;&#1086;&#1080;&#1079;&#1074;&#1077;&#1076;&#1077;&#1085;&#1080;&#1077; (HLS)</text><rect fill="#F1F1F1" height="33.9688" rx="12.5" ry="12.5" style="stroke:#181818;stroke-width:0.5;" width="335.4922" x="175.8354" y="308.1719"/><text fill="#000000" font-family="sans-serif" font-size="12" lengthAdjust="spacing" textLength="315.4922" x="185.8354" y="329.3105">5. &#1055;&#1086;&#1083;&#1100;&#1079;&#1086;&#1074;&#1072;&#1090;&#1077;&#1083;&#1100; &#1089;&#1084;&#1086;&#1090;&#1088;&#1080;&#1090; &#1086;&#1085;&#1083;&#1072;&#1081;&#1085;, &#1073;&#1077;&#1079; &#1089;&#1082;&#1072;&#1095;&#1080;&#1074;&#1072;&#1085;&#1080;&#1103;</text><rect fill="#F1F1F1" height="33.9688" rx="12.5" ry="12.5" style="stroke:#181818;stroke-width:0.5;" width="407.9199" x="139.6216" y="362.1406"/><text fill="#000000" font-family="sans-serif" font-size="12" lengthAdjust="spacing" textLength="387.9199" x="149.6216" y="383.2793">6. &#1042; &#1083;&#1102;&#1073;&#1086;&#1081; &#1084;&#1086;&#1084;&#1077;&#1085;&#1090; &#1084;&#1086;&#1078;&#1077;&#1090; &#1074;&#1082;&#1083;&#1102;&#1095;&#1080;&#1090;&#1100; &#1072;&#1074;&#1090;&#1086;-&#1087;&#1077;&#1088;&#1077;&#1074;&#1086;&#1076; &#1089;&#1091;&#1073;&#1090;&#1080;&#1090;&#1088;&#1086;&#1074;</text><rect fill="#F1F1F1" height="33.9688" rx="12.5" ry="12.5" style="stroke:#181818;stroke-width:0.5;" width="289.4375" x="198.8628" y="416.1094"/><text fill="#000000" font-family="sans-serif" font-size="12" lengthAdjust="spacing" textLength="269.4375" x="208.8628" y="437.248">7. &#1052;&#1086;&#1078;&#1077;&#1090; &#1086;&#1089;&#1090;&#1072;&#1074;&#1080;&#1090;&#1100; &#1082;&#1086;&#1084;&#1084;&#1077;&#1085;&#1090;&#1072;&#1088;&#1080;&#1081; &#1080;&#1083;&#1080; &#1083;&#1072;&#1081;&#1082;</text><polygon fill="#F1F1F1" points="261.667,470.0781,425.4961,470.0781,437.4961,482.0781,425.4961,494.0781,261.667,494.0781,249.667,482.0781,261.667,470.0781" style="stroke:#181818;stroke-width:0.5;"/><text fill="#000000" font-family="sans-serif" font-size="11" lengthAdjust="spacing" textLength="163.8291" x="261.667" y="485.8862">&#1055;&#1086;&#1083;&#1100;&#1079;&#1086;&#1074;&#1072;&#1090;&#1077;&#1083;&#1100; &#1072;&#1074;&#1090;&#1086;&#1088;&#1080;&#1079;&#1086;&#1074;&#1072;&#1085;?</text><text fill="#000000" font-family="sans-serif" font-size="11" lengthAdjust="spacing" textLength="14.3462" x="235.3208" y="479.4839">&#1076;&#1072;</text><text fill="#000000" font-family="sans-serif" font-size="11" lengthAdjust="spacing" textLength="20.3672" x="437.4961" y="479.4839">&#1085;&#1077;&#1090;</text><rect fill="#F1F1F1" height="33.9688" rx="12.5" ry="12.5" style="stroke:#181818;stroke-width:0.5;" width="310.584" x="16" y="504.0781"/><text fill="#000000" font-family="sans-serif" font-size="12" lengthAdjust="spacing" textLength="290.584" x="26" y="525.2168">&#1050;&#1086;&#1084;&#1084;&#1077;&#1085;&#1090;&#1072;&#1088;&#1080;&#1081;/&#1083;&#1072;&#1081;&#1082; &#1089;&#1086;&#1093;&#1088;&#1072;&#1085;&#1103;&#1102;&#1090;&#1089;&#1103; &#1074; PostgreSQL</text><rect fill="#F1F1F1" height="33.9688" rx="12.5" ry="12.5" style="stroke:#181818;stroke-width:0.5;" width="304.8652" x="18.8594" y="558.0469"/><text fill="#000000" font-family="sans-serif" font-size="12" lengthAdjust="spacing" textLength="284.8652" x="28.8594" y="579.1855">&#1055;&#1077;&#1088;&#1077;&#1074;&#1086;&#1076; &#1088;&#1072;&#1073;&#1086;&#1090;&#1072;&#1077;&#1090; &#1095;&#1077;&#1088;&#1077;&#1079; open-source &#1084;&#1086;&#1076;&#1077;&#1083;&#1100;</text><rect fill="#F1F1F1" height="33.9688" rx="12.5" ry="12.5" style="stroke:#181818;stroke-width:0.5;" width="338.5742" x="346.584" y="504.0781"/><text fill="#000000" font-family="sans-serif" font-size="12" lengthAdjust="spacing" textLength="318.5742" x="356.584" y="525.2168">&#1055;&#1088;&#1077;&#1076;&#1083;&#1072;&#1075;&#1072;&#1077;&#1090;&#1089;&#1103; &#1072;&#1085;&#1086;&#1085;&#1080;&#1084;&#1085;&#1072;&#1103; &#1088;&#1077;&#1075;&#1080;&#1089;&#1090;&#1088;&#1072;&#1094;&#1080;&#1103; (&#1073;&#1077;&#1079; email)</text><rect fill="#F1F1F1" height="33.9688" rx="12.5" ry="12.5" style="stroke:#181818;stroke-width:0.5;" width="309.2832" x="361.2295" y="558.0469"/><text fill="#000000" font-family="sans-serif" font-size="12" lengthAdjust="spacing" textLength="289.2832" x="371.2295" y="579.1855">&#1055;&#1086;&#1089;&#1083;&#1077; &#1088;&#1077;&#1075;&#1080;&#1089;&#1090;&#1088;&#1072;&#1094;&#1080;&#1080; &#8212; &#1076;&#1086;&#1089;&#1090;&#1091;&#1087;&#1085;&#1099; &#1074;&#1089;&#1077; &#1092;&#1091;&#1085;&#1082;&#1094;&#1080;&#1080;</text><polygon fill="#F1F1F1" points="343.5815,598.0156,355.5815,610.0156,343.5815,622.0156,331.5815,610.0156,343.5815,598.0156" style="stroke:#181818;stroke-width:0.5;"/><rect fill="#F1F1F1" height="33.9688" rx="12.5" ry="12.5" style="stroke:#181818;stroke-width:0.5;" width="169.3086" x="258.9272" y="642.0156"/><text fill="#000000" font-family="sans-serif" font-size="12" lengthAdjust="spacing" textLength="149.3086" x="268.9272" y="663.1543">8. &#1047;&#1072;&#1074;&#1077;&#1088;&#1096;&#1072;&#1077;&#1090; &#1087;&#1088;&#1086;&#1089;&#1084;&#1086;&#1090;&#1088;</text><ellipse cx="343.5815" cy="706.9844" fill="none" rx="11" ry="11" style="stroke:#222222;stroke-width:1;"/><ellipse cx="343.5815" cy="706.9844" fill="#222222" rx="6" ry="6" style="stroke:#222222;stroke-width:1;"/><line style="stroke:#181818;stroke-width:1;" x1="343.5815" x2="343.5815" y1="72.2969" y2="92.2969"/><polygon fill="#181818" points="339.5815,82.2969,343.5815,92.2969,347.5815,82.2969,343.5815,86.2969" style="stroke:#181818;stroke-width:1;"/><line style="stroke:#181818;stroke-width:1;" x1="343.5815" x2="343.5815" y1="126.2656" y2="146.2656"/><polygon fill="#181818" points="339.5815,136.2656,343.5815,146.2656,347.5815,136.2656,343.5815,140.2656" style="stroke:#181818;stroke-width:1;"/><line style="stroke:#181818;stroke-width:1;" x1="343.5815" x2="343.5815" y1="180.2344" y2="200.2344"/><polygon fill="#181818" points="339.5815,190.2344,343.5815,200.2344,347.5815,190.2344,343.5815,194.2344" style="stroke:#181818;stroke-width:1;"/><line style="stroke:#181818;stroke-width:1;" x1="343.5815" x2="343.5815" y1="234.2031" y2="254.2031"/><polygon fill="#181818" points="339.5815,244.2031,343.5815,254.2031,347.5815,244.2031,343.5815,248.2031" style="stroke:#181818;stroke-width:1;"/><line style="stroke:#181818;stroke-width:1;" x1="343.5815" x2="343.5815" y1="288.1719" y2="308.1719"/><polygon fill="#181818" points="339.5815,298.1719,343.5815,308.1719,347.5815,298.1719,343.5815,302.1719" style="stroke:#181818;stroke-width:1;"/><line style="stroke:#181818;stroke-width:1;" x1="343.5815" x2="343.5815" y1="342.1406" y2="362.1406"/><polygon fill="#181818" points="339.5815,352.1406,343.5815,362.1406,347.5815,352.1406,343.5815,356.1406" style="stroke:#181818;stroke-width:1;"/><line style="stroke:#181818;stroke-width:1;" x1="343.5815" x2="343.5815" y1="396.1094" y2="416.1094"/><polygon fill="#181818" points="339.5815,406.1094,343.5815,416.1094,347.5815,406.1094,343.5815,410.1094" style="stroke:#181818;stroke-width:1;"/><line style="stroke:#181818;stroke-width:1;" x1="171.292" x2="171.292" y1="538.0469" y2="558.0469"/><polygon fill="#181818" points="167.292,548.0469,171.292,558.0469,175.292,548.0469,171.292,552.0469" style="stroke:#181818;stroke-width:1;"/><line style="stroke:#181818;stroke-width:1;" x1="515.8711" x2="515.8711" y1="538.0469" y2="558.0469"/><polygon fill="#181818" points="511.8711,548.0469,515.8711,558.0469,519.8711,548.0469,515.8711,552.0469" style="stroke:#181818;stroke-width:1;"/><line style="stroke:#181818;stroke-width:1;" x1="249.667" x2="171.292" y1="482.0781" y2="482.0781"/><line style="stroke:#181818;stroke-width:1;" x1="171.292" x2="171.292" y1="482.0781" y2="504.0781"/><polygon fill="#181818" points="167.292,494.0781,171.292,504.0781,175.292,494.0781,171.292,498.0781" style="stroke:#181818;stroke-width:1;"/><line style="stroke:#181818;stroke-width:1;" x1="437.4961" x2="515.8711" y1="482.0781" y2="482.0781"/><line style="stroke:#181818;stroke-width:1;" x1="515.8711" x2="515.8711" y1="482.0781" y2="504.0781"/><polygon fill="#181818" points="511.8711,494.0781,515.8711,504.0781,519.8711,494.0781,515.8711,498.0781" style="stroke:#181818;stroke-width:1;"/><line style="stroke:#181818;stroke-width:1;" x1="171.292" x2="171.292" y1="592.0156" y2="610.0156"/><line style="stroke:#181818;stroke-width:1;" x1="171.292" x2="331.5815" y1="610.0156" y2="610.0156"/><polygon fill="#181818" points="321.5815,606.0156,331.5815,610.0156,321.5815,614.0156,325.5815,610.0156" style="stroke:#181818;stroke-width:1;"/><line style="stroke:#181818;stroke-width:1;" x1="515.8711" x2="515.8711" y1="592.0156" y2="610.0156"/><line style="stroke:#181818;stroke-width:1;" x1="515.8711" x2="355.5815" y1="610.0156" y2="610.0156"/><polygon fill="#181818" points="365.5815,606.0156,355.5815,610.0156,365.5815,614.0156,361.5815,610.0156" style="stroke:#181818;stroke-width:1;"/><line style="stroke:#181818;stroke-width:1;" x1="343.5815" x2="343.5815" y1="450.0781" y2="470.0781"/><polygon fill="#181818" points="339.5815,460.0781,343.5815,470.0781,347.5815,460.0781,343.5815,464.0781" style="stroke:#181818;stroke-width:1;"/><line style="stroke:#181818;stroke-width:1;" x1="343.5815" x2="343.5815" y1="622.0156" y2="642.0156"/><polygon fill="#181818" points="339.5815,632.0156,343.5815,642.0156,347.5815,632.0156,343.5815,636.0156" style="stroke:#181818;stroke-width:1;"/><line style="stroke:#181818;stroke-width:1;" x1="343.5815" x2="343.5815" y1="675.9844" y2="695.9844"/><polygon fill="#181818" points="339.5815,685.9844,343.5815,695.9844,347.5815,685.9844,343.5815,689.9844" style="stroke:#181818;stroke-width:1;"/><?plantuml-src VLJTYjDW4BtFKypb5hQAwo_9XI08NYoeh2zGDAk5sYvjlC_6NzYo0H444QflaBI9JTCc-mhplO9Fufdvacw5rOl-VcVEd7DclWJzOE0J_-32d9gtN77D9Htqw7VuXPuzxZvuw19Vc91hSyeRl4Sc99vpmHddN1CNX8eKWCH4g4vCJ43EJSnBCtMSIT0R1uvxunhn3C2rcV8IdtE5v_ARX9HB4vep-Pjp4zcE1Q-1_0LKXU-vvxW7mhBLaeWMd6oBIYLDj6onAt9F-NAecfhpVHAPK25rohnFUhf2SO5_5XsqkebMdw4eHIvXss3B2C0j07vgQE83QfJMV5IAreLQGw3gkEPSA4Iy1WgaYCYLKeNGtgF38-b--pznNSu1tID9luBZX5TSmLeAr58mPIEcSMbYqDuHKmIMS-1gNf4muONsmhInSLkdfS240PqmemJXmKeNddAR9S0PwSwa4fmAWbAqkOisto-vQiqeaVGiLwbDcxQGAKE45fatjibwAJsdVup1_NDf6a5Qt1noTRz3mIj_YBgCauv3vFAtgvfTRxj8KhLvhoEkJ0p74TJ6282UZ2R1ox5_zFJGKwBPtyQb8jNvsc4ZAdk-fD69F-nEHc_6ptqRQcP5Uuu_cFWGLqc5bJVJcaprB2oL5P3eLPIrsBJNIf0Bkt9wtpx8M45dP-w_xlK7dLQhRDaQ6tLL4LAMsuskEXfCy0Bcps0QHIXvfy-1qa8XUlYYV-ouzp3Lhpf6-3IVTc_gphF1muqVdVm1?></g></svg>