<svg xmlns="http://www.w3.org/2000/svg" xmlns:xlink="http://www.w3.org/1999/xlink" contentStyleType="text/css" data-diagram-type="CLASS" height="1162px" preserveAspectRatio="none" style="width:596px;height:1162px;background:#FFFFFF;" version="1.1" viewBox="0 0 596 1162" width="596px" zoomAndPan="magnify"><?plantuml 1.2026.3beta6?><defs/><g><!--class User--><g class="entity" data-qualified-name="User" data-source-line="1" id="ent0002"><rect fill="#F1F1F1" height="243.5625" rx="2.5" ry="2.5" style="stroke:#181818;stroke-width:0.5;" width="177.9697" x="284.19" y="7"/><ellipse cx="352.9698" cy="23" fill="#ADD1B2" rx="11" ry="11" style="stroke:#181818;stroke-width:1;"/><path d="M355.9385,28.6406 Q355.3604,28.9375 354.7198,29.0781 Q354.0792,29.2344 353.376,29.2344 Q350.876,29.2344 349.5479,27.5938 Q348.2354,25.9375 348.2354,22.8125 Q348.2354,19.6875 349.5479,18.0313 Q350.876,16.375 353.376,16.375 Q354.0792,16.375 354.7198,16.5313 Q355.376,16.6875 355.9385,16.9844 L355.9385,19.7031 Q355.3135,19.125 354.7198,18.8594 Q354.126,18.5781 353.501,18.5781 Q352.1573,18.5781 351.4698,19.6563 Q350.7823,20.7188 350.7823,22.8125 Q350.7823,24.9063 351.4698,25.9844 Q352.1573,27.0469 353.501,27.0469 Q354.126,27.0469 354.7198,26.7813 Q355.3135,26.5 355.9385,25.9219 L355.9385,28.6406 Z " fill="#000000"/><text fill="#000000" font-family="sans-serif" font-size="14" lengthAdjust="spacing" textLength="31.9102" x="373.4698" y="27.8467">User</text><line style="stroke:#181818;stroke-width:0.5;" x1="285.19" x2="461.1597" y1="39" y2="39"/><g data-visibility-modifier="PUBLIC_FIELD"><ellipse cx="295.19" cy="52.6484" fill="none" rx="3" ry="3" style="stroke:#038048;stroke-width:1;"/></g><text fill="#000000" font-family="sans-serif" font-size="14" lengthAdjust="spacing" textLength="52.6299" x="304.19" y="55.9951">UUID id</text><g data-visibility-modifier="PUBLIC_FIELD"><ellipse cx="295.19" cy="68.9453" fill="none" rx="3" ry="3" style="stroke:#038048;stroke-width:1;"/></g><text fill="#000000" font-family="sans-serif" font-size="14" lengthAdjust="spacing" textLength="78.7432" x="304.19" y="72.292">string login</text><g data-visibility-modifier="PUBLIC_FIELD"><ellipse cx="295.19" cy="85.2422" fill="none" rx="3" ry="3" style="stroke:#038048;stroke-width:1;"/></g><text fill="#000000" font-family="sans-serif" font-size="14" lengthAdjust="spacing" textLength="151.9697" x="304.19" y="88.5889">string password_hash</text><g data-visibility-modifier="PUBLIC_FIELD"><ellipse cx="295.19" cy="101.5391" fill="none" rx="3" ry="3" style="stroke:#038048;stroke-width:1;"/></g><text fill="#000000" font-family="sans-serif" font-size="14" lengthAdjust="spacing" textLength="71.4629" x="304.19" y="104.8857">string role</text><g data-visibility-modifier="PUBLIC_FIELD"><ellipse cx="295.19" cy="117.8359" fill="none" rx="3" ry="3" style="stroke:#038048;stroke-width:1;"/></g><text fill="#000000" font-family="sans-serif" font-size="14" lengthAdjust="spacing" textLength="142.3516" x="304.19" y="121.1826">datetime created_at</text><line style="stroke:#181818;stroke-width:0.5;" x1="285.19" x2="461.1597" y1="128.4844" y2="128.4844"/><g data-visibility-modifier="PUBLIC_METHOD"><ellipse cx="295.19" cy="142.1328" fill="#84BE84" rx="3" ry="3" style="stroke:#038048;stroke-width:1;"/></g><text fill="#000000" font-family="sans-serif" font-size="14" lengthAdjust="spacing" textLength="65.2217" x="304.19" y="145.4795">register()</text><g data-visibility-modifier="PUBLIC_METHOD"><ellipse cx="295.19" cy="158.4297" fill="#84BE84" rx="3" ry="3" style="stroke:#038048;stroke-width:1;"/></g><text fill="#000000" font-family="sans-serif" font-size="14" lengthAdjust="spacing" textLength="45.0283" x="304.19" y="161.7764">login()</text><g data-visibility-modifier="PUBLIC_METHOD"><ellipse cx="295.19" cy="174.7266" fill="#84BE84" rx="3" ry="3" style="stroke:#038048;stroke-width:1;"/></g><text fill="#000000" font-family="sans-serif" font-size="14" lengthAdjust="spacing" textLength="81.8877" x="304.19" y="178.0732">editProfile()</text><g data-visibility-modifier="PUBLIC_METHOD"><ellipse cx="295.19" cy="191.0234" fill="#84BE84" rx="3" ry="3" style="stroke:#038048;stroke-width:1;"/></g><text fill="#000000" font-family="sans-serif" font-size="14" lengthAdjust="spacing" textLength="98.1367" x="304.19" y="194.3701">uploadVideo()</text><g data-visibility-modifier="PUBLIC_METHOD"><ellipse cx="295.19" cy="207.3203" fill="#84BE84" rx="3" ry="3" style="stroke:#038048;stroke-width:1;"/></g><text fill="#000000" font-family="sans-serif" font-size="14" lengthAdjust="spacing" textLength="77.4375" x="304.19" y="210.667">comment()</text><g data-visibility-modifier="PUBLIC_METHOD"><ellipse cx="295.19" cy="223.6172" fill="#84BE84" rx="3" ry="3" style="stroke:#038048;stroke-width:1;"/></g><text fill="#000000" font-family="sans-serif" font-size="14" lengthAdjust="spacing" textLength="35.4238" x="304.19" y="226.9639">like()</text><g data-visibility-modifier="PUBLIC_METHOD"><ellipse cx="295.19" cy="239.9141" fill="#84BE84" rx="3" ry="3" style="stroke:#038048;stroke-width:1;"/></g><text fill="#000000" font-family="sans-serif" font-size="14" lengthAdjust="spacing" textLength="105.4307" x="304.19" y="243.2607">createPlaylist()</text></g><!--class Video--><g class="entity" data-qualified-name="Video" data-source-line="16" id="ent0003"><rect fill="#F1F1F1" height="308.75" rx="2.5" ry="2.5" style="stroke:#181818;stroke-width:0.5;" width="179.8975" x="208.23" y="582.94"/><ellipse cx="274.1626" cy="598.94" fill="#ADD1B2" rx="11" ry="11" style="stroke:#181818;stroke-width:1;"/><path d="M277.1314,604.5806 Q276.5532,604.8775 275.9126,605.0181 Q275.272,605.1744 274.5689,605.1744 Q272.0689,605.1744 270.7407,603.5337 Q269.4282,601.8775 269.4282,598.7525 Q269.4282,595.6275 270.7407,593.9712 Q272.0689,592.315 274.5689,592.315 Q275.272,592.315 275.9126,592.4712 Q276.5689,592.6275 277.1314,592.9244 L277.1314,595.6431 Q276.5064,595.065 275.9126,594.7994 Q275.3189,594.5181 274.6939,594.5181 Q273.3501,594.5181 272.6626,595.5962 Q271.9751,596.6587 271.9751,598.7525 Q271.9751,600.8462 272.6626,601.9244 Q273.3501,602.9869 274.6939,602.9869 Q275.3189,602.9869 275.9126,602.7212 Q276.5064,602.44 277.1314,601.8619 L277.1314,604.5806 Z " fill="#000000"/><text fill="#000000" font-family="sans-serif" font-size="14" lengthAdjust="spacing" textLength="39.5322" x="294.6626" y="603.7867">Video</text><line style="stroke:#181818;stroke-width:0.5;" x1="209.23" x2="387.1275" y1="614.94" y2="614.94"/><g data-visibility-modifier="PUBLIC_FIELD"><ellipse cx="219.23" cy="628.5884" fill="none" rx="3" ry="3" style="stroke:#038048;stroke-width:1;"/></g><text fill="#000000" font-family="sans-serif" font-size="14" lengthAdjust="spacing" textLength="52.6299" x="228.23" y="631.9351">UUID id</text><g data-visibility-modifier="PUBLIC_FIELD"><ellipse cx="219.23" cy="644.8853" fill="none" rx="3" ry="3" style="stroke:#038048;stroke-width:1;"/></g><text fill="#000000" font-family="sans-serif" font-size="14" lengthAdjust="spacing" textLength="105.7656" x="228.23" y="648.232">UUID author_id</text><g data-visibility-modifier="PUBLIC_FIELD"><ellipse cx="219.23" cy="661.1822" fill="none" rx="3" ry="3" style="stroke:#038048;stroke-width:1;"/></g><text fill="#000000" font-family="sans-serif" font-size="14" lengthAdjust="spacing" textLength="72.0098" x="228.23" y="664.5289">string title</text><g data-visibility-modifier="PUBLIC_FIELD"><ellipse cx="219.23" cy="677.4791" fill="none" rx="3" ry="3" style="stroke:#038048;stroke-width:1;"/></g><text fill="#000000" font-family="sans-serif" font-size="14" lengthAdjust="spacing" textLength="110.168" x="228.23" y="680.8257">text description</text><g data-visibility-modifier="PUBLIC_FIELD"><ellipse cx="219.23" cy="693.7759" fill="none" rx="3" ry="3" style="stroke:#038048;stroke-width:1;"/></g><text fill="#000000" font-family="sans-serif" font-size="14" lengthAdjust="spacing" textLength="106.5107" x="228.23" y="697.1226">string category</text><g data-visibility-modifier="PUBLIC_FIELD"><ellipse cx="219.23" cy="710.0728" fill="none" rx="3" ry="3" style="stroke:#038048;stroke-width:1;"/></g><text fill="#000000" font-family="sans-serif" font-size="14" lengthAdjust="spacing" textLength="55.2617" x="228.23" y="713.4195">list tags</text><g data-visibility-modifier="PUBLIC_FIELD"><ellipse cx="219.23" cy="726.3697" fill="none" rx="3" ry="3" style="stroke:#038048;stroke-width:1;"/></g><text fill="#000000" font-family="sans-serif" font-size="14" lengthAdjust="spacing" textLength="104.7881" x="228.23" y="729.7164">string file_path</text><g data-visibility-modifier="PUBLIC_FIELD"><ellipse cx="219.23" cy="742.6666" fill="none" rx="3" ry="3" style="stroke:#038048;stroke-width:1;"/></g><text fill="#000000" font-family="sans-serif" font-size="14" lengthAdjust="spacing" textLength="81.6143" x="228.23" y="746.0132">int duration</text><g data-visibility-modifier="PUBLIC_FIELD"><ellipse cx="219.23" cy="758.9634" fill="none" rx="3" ry="3" style="stroke:#038048;stroke-width:1;"/></g><text fill="#000000" font-family="sans-serif" font-size="14" lengthAdjust="spacing" textLength="62.2344" x="228.23" y="762.3101">int views</text><g data-visibility-modifier="PUBLIC_FIELD"><ellipse cx="219.23" cy="775.2603" fill="none" rx="3" ry="3" style="stroke:#038048;stroke-width:1;"/></g><text fill="#000000" font-family="sans-serif" font-size="14" lengthAdjust="spacing" textLength="87.6572" x="228.23" y="778.607">string status</text><g data-visibility-modifier="PUBLIC_FIELD"><ellipse cx="219.23" cy="791.5572" fill="none" rx="3" ry="3" style="stroke:#038048;stroke-width:1;"/></g><text fill="#000000" font-family="sans-serif" font-size="14" lengthAdjust="spacing" textLength="153.8975" x="228.23" y="794.9039">datetime uploaded_at</text><line style="stroke:#181818;stroke-width:0.5;" x1="209.23" x2="387.1275" y1="802.2056" y2="802.2056"/><g data-visibility-modifier="PUBLIC_METHOD"><ellipse cx="219.23" cy="815.8541" fill="#84BE84" rx="3" ry="3" style="stroke:#038048;stroke-width:1;"/></g><text fill="#000000" font-family="sans-serif" font-size="14" lengthAdjust="spacing" textLength="58.6045" x="228.23" y="819.2007">upload()</text><g data-visibility-modifier="PUBLIC_METHOD"><ellipse cx="219.23" cy="832.1509" fill="#84BE84" rx="3" ry="3" style="stroke:#038048;stroke-width:1;"/></g><text fill="#000000" font-family="sans-serif" font-size="14" lengthAdjust="spacing" textLength="37.8027" x="228.23" y="835.4976">edit()</text><g data-visibility-modifier="PUBLIC_METHOD"><ellipse cx="219.23" cy="848.4478" fill="#84BE84" rx="3" ry="3" style="stroke:#038048;stroke-width:1;"/></g><text fill="#000000" font-family="sans-serif" font-size="14" lengthAdjust="spacing" textLength="55.0293" x="228.23" y="851.7945">delete()</text><g data-visibility-modifier="PUBLIC_METHOD"><ellipse cx="219.23" cy="864.7447" fill="#84BE84" rx="3" ry="3" style="stroke:#038048;stroke-width:1;"/></g><text fill="#000000" font-family="sans-serif" font-size="14" lengthAdjust="spacing" textLength="61.5166" x="228.23" y="868.0914">publish()</text><g data-visibility-modifier="PUBLIC_METHOD"><ellipse cx="219.23" cy="881.0416" fill="#84BE84" rx="3" ry="3" style="stroke:#038048;stroke-width:1;"/></g><text fill="#000000" font-family="sans-serif" font-size="14" lengthAdjust="spacing" textLength="43.1621" x="228.23" y="884.3882">view()</text></g><!--class Comment--><g class="entity" data-qualified-name="Comment" data-source-line="35" id="ent0004"><rect fill="#F1F1F1" height="178.375" rx="2.5" ry="2.5" style="stroke:#181818;stroke-width:0.5;" width="168.3516" x="7" y="968.68"/><ellipse cx="52.6299" cy="984.68" fill="#ADD1B2" rx="11" ry="11" style="stroke:#181818;stroke-width:1;"/><path d="M55.5986,990.3206 Q55.0205,990.6175 54.3799,990.7581 Q53.7393,990.9144 53.0361,990.9144 Q50.5361,990.9144 49.208,989.2738 Q47.8955,987.6175 47.8955,984.4925 Q47.8955,981.3675 49.208,979.7113 Q50.5361,978.055 53.0361,978.055 Q53.7393,978.055 54.3799,978.2113 Q55.0361,978.3675 55.5986,978.6644 L55.5986,981.3831 Q54.9736,980.805 54.3799,980.5394 Q53.7861,980.2581 53.1611,980.2581 Q51.8174,980.2581 51.1299,981.3363 Q50.4424,982.3988 50.4424,984.4925 Q50.4424,986.5863 51.1299,987.6644 Q51.8174,988.7269 53.1611,988.7269 Q53.7861,988.7269 54.3799,988.4613 Q54.9736,988.18 55.5986,987.6019 L55.5986,990.3206 Z " fill="#000000"/><text fill="#000000" font-family="sans-serif" font-size="14" lengthAdjust="spacing" textLength="68.5918" x="73.1299" y="989.5267">Comment</text><line style="stroke:#181818;stroke-width:0.5;" x1="8" x2="174.3516" y1="1000.68" y2="1000.68"/><g data-visibility-modifier="PUBLIC_FIELD"><ellipse cx="18" cy="1014.3284" fill="none" rx="3" ry="3" style="stroke:#038048;stroke-width:1;"/></g><text fill="#000000" font-family="sans-serif" font-size="14" lengthAdjust="spacing" textLength="52.6299" x="27" y="1017.6751">UUID id</text><g data-visibility-modifier="PUBLIC_FIELD"><ellipse cx="18" cy="1030.6253" fill="none" rx="3" ry="3" style="stroke:#038048;stroke-width:1;"/></g><text fill="#000000" font-family="sans-serif" font-size="14" lengthAdjust="spacing" textLength="97.8701" x="27" y="1033.972">UUID video_id</text><g data-visibility-modifier="PUBLIC_FIELD"><ellipse cx="18" cy="1046.9222" fill="none" rx="3" ry="3" style="stroke:#038048;stroke-width:1;"/></g><text fill="#000000" font-family="sans-serif" font-size="14" lengthAdjust="spacing" textLength="90.166" x="27" y="1050.2689">UUID user_id</text><g data-visibility-modifier="PUBLIC_FIELD"><ellipse cx="18" cy="1063.2191" fill="none" rx="3" ry="3" style="stroke:#038048;stroke-width:1;"/></g><text fill="#000000" font-family="sans-serif" font-size="14" lengthAdjust="spacing" textLength="85.9277" x="27" y="1066.5657">text content</text><g data-visibility-modifier="PUBLIC_FIELD"><ellipse cx="18" cy="1079.5159" fill="none" rx="3" ry="3" style="stroke:#038048;stroke-width:1;"/></g><text fill="#000000" font-family="sans-serif" font-size="14" lengthAdjust="spacing" textLength="142.3516" x="27" y="1082.8626">datetime created_at</text><line style="stroke:#181818;stroke-width:0.5;" x1="8" x2="174.3516" y1="1090.1644" y2="1090.1644"/><g data-visibility-modifier="PUBLIC_METHOD"><ellipse cx="18" cy="1103.8128" fill="#84BE84" rx="3" ry="3" style="stroke:#038048;stroke-width:1;"/></g><text fill="#000000" font-family="sans-serif" font-size="14" lengthAdjust="spacing" textLength="37.2764" x="27" y="1107.1595">add()</text><g data-visibility-modifier="PUBLIC_METHOD"><ellipse cx="18" cy="1120.1097" fill="#84BE84" rx="3" ry="3" style="stroke:#038048;stroke-width:1;"/></g><text fill="#000000" font-family="sans-serif" font-size="14" lengthAdjust="spacing" textLength="37.8027" x="27" y="1123.4564">edit()</text><g data-visibility-modifier="PUBLIC_METHOD"><ellipse cx="18" cy="1136.4066" fill="#84BE84" rx="3" ry="3" style="stroke:#038048;stroke-width:1;"/></g><text fill="#000000" font-family="sans-serif" font-size="14" lengthAdjust="spacing" textLength="55.0293" x="27" y="1139.7532">delete()</text></g><!--class Like--><g class="entity" data-qualified-name="Like" data-source-line="46" id="ent0005"><rect fill="#F1F1F1" height="162.0781" rx="2.5" ry="2.5" style="stroke:#181818;stroke-width:0.5;" width="129.1064" x="452.62" y="976.83"/><ellipse cx="498.7181" cy="992.83" fill="#ADD1B2" rx="11" ry="11" style="stroke:#181818;stroke-width:1;"/><path d="M501.6869,998.4706 Q501.1088,998.7675 500.4681,998.9081 Q499.8275,999.0644 499.1244,999.0644 Q496.6244,999.0644 495.2963,997.4237 Q493.9838,995.7675 493.9838,992.6425 Q493.9838,989.5175 495.2963,987.8612 Q496.6244,986.205 499.1244,986.205 Q499.8275,986.205 500.4681,986.3612 Q501.1244,986.5175 501.6869,986.8144 L501.6869,989.5331 Q501.0619,988.955 500.4681,988.6894 Q499.8744,988.4081 499.2494,988.4081 Q497.9056,988.4081 497.2181,989.4862 Q496.5306,990.5487 496.5306,992.6425 Q496.5306,994.7362 497.2181,995.8144 Q497.9056,996.8769 499.2494,996.8769 Q499.8744,996.8769 500.4681,996.6112 Q501.0619,996.33 501.6869,995.7519 L501.6869,998.4706 Z " fill="#000000"/><text fill="#000000" font-family="sans-serif" font-size="14" lengthAdjust="spacing" textLength="28.4102" x="519.2181" y="997.6767">Like</text><line style="stroke:#181818;stroke-width:0.5;" x1="453.62" x2="580.7264" y1="1008.83" y2="1008.83"/><g data-visibility-modifier="PUBLIC_FIELD"><ellipse cx="463.62" cy="1022.4784" fill="none" rx="3" ry="3" style="stroke:#038048;stroke-width:1;"/></g><text fill="#000000" font-family="sans-serif" font-size="14" lengthAdjust="spacing" textLength="52.6299" x="472.62" y="1025.8251">UUID id</text><g data-visibility-modifier="PUBLIC_FIELD"><ellipse cx="463.62" cy="1038.7753" fill="none" rx="3" ry="3" style="stroke:#038048;stroke-width:1;"/></g><text fill="#000000" font-family="sans-serif" font-size="14" lengthAdjust="spacing" textLength="97.8701" x="472.62" y="1042.122">UUID video_id</text><g data-visibility-modifier="PUBLIC_FIELD"><ellipse cx="463.62" cy="1055.0722" fill="none" rx="3" ry="3" style="stroke:#038048;stroke-width:1;"/></g><text fill="#000000" font-family="sans-serif" font-size="14" lengthAdjust="spacing" textLength="90.166" x="472.62" y="1058.4189">UUID user_id</text><g data-visibility-modifier="PUBLIC_FIELD"><ellipse cx="463.62" cy="1071.3691" fill="none" rx="3" ry="3" style="stroke:#038048;stroke-width:1;"/></g><text fill="#000000" font-family="sans-serif" font-size="14" lengthAdjust="spacing" textLength="103.1064" x="472.62" y="1074.7157">boolean is_like</text><line style="stroke:#181818;stroke-width:0.5;" x1="453.62" x2="580.7264" y1="1082.0175" y2="1082.0175"/><g data-visibility-modifier="PUBLIC_METHOD"><ellipse cx="463.62" cy="1095.6659" fill="#84BE84" rx="3" ry="3" style="stroke:#038048;stroke-width:1;"/></g><text fill="#000000" font-family="sans-serif" font-size="14" lengthAdjust="spacing" textLength="60.7305" x="472.62" y="1099.0126">setLike()</text><g data-visibility-modifier="PUBLIC_METHOD"><ellipse cx="463.62" cy="1111.9628" fill="#84BE84" rx="3" ry="3" style="stroke:#038048;stroke-width:1;"/></g><text fill="#000000" font-family="sans-serif" font-size="14" lengthAdjust="spacing" textLength="78.7842" x="472.62" y="1115.3095">setDislike()</text><g data-visibility-modifier="PUBLIC_METHOD"><ellipse cx="463.62" cy="1128.2597" fill="#84BE84" rx="3" ry="3" style="stroke:#038048;stroke-width:1;"/></g><text fill="#000000" font-family="sans-serif" font-size="14" lengthAdjust="spacing" textLength="64.3945" x="472.62" y="1131.6064">remove()</text></g><!--class Playlist--><g class="entity" data-qualified-name="Playlist" data-source-line="56" id="ent0006"><rect fill="#F1F1F1" height="178.375" rx="2.5" ry="2.5" style="stroke:#181818;stroke-width:0.5;" width="168.3516" x="174" y="327.56"/><ellipse cx="229.0464" cy="343.56" fill="#ADD1B2" rx="11" ry="11" style="stroke:#181818;stroke-width:1;"/><path d="M232.0151,349.2006 Q231.437,349.4975 230.7964,349.6381 Q230.1558,349.7944 229.4526,349.7944 Q226.9526,349.7944 225.6245,348.1537 Q224.312,346.4975 224.312,343.3725 Q224.312,340.2475 225.6245,338.5912 Q226.9526,336.935 229.4526,336.935 Q230.1558,336.935 230.7964,337.0912 Q231.4526,337.2475 232.0151,337.5444 L232.0151,340.2631 Q231.3901,339.685 230.7964,339.4194 Q230.2026,339.1381 229.5776,339.1381 Q228.2339,339.1381 227.5464,340.2162 Q226.8589,341.2787 226.8589,343.3725 Q226.8589,345.4662 227.5464,346.5444 Q228.2339,347.6069 229.5776,347.6069 Q230.2026,347.6069 230.7964,347.3412 Q231.3901,347.06 232.0151,346.4819 L232.0151,349.2006 Z " fill="#000000"/><text fill="#000000" font-family="sans-serif" font-size="14" lengthAdjust="spacing" textLength="49.7588" x="249.5464" y="348.4067">Playlist</text><line style="stroke:#181818;stroke-width:0.5;" x1="175" x2="341.3516" y1="359.56" y2="359.56"/><g data-visibility-modifier="PUBLIC_FIELD"><ellipse cx="185" cy="373.2084" fill="none" rx="3" ry="3" style="stroke:#038048;stroke-width:1;"/></g><text fill="#000000" font-family="sans-serif" font-size="14" lengthAdjust="spacing" textLength="52.6299" x="194" y="376.5551">UUID id</text><g data-visibility-modifier="PUBLIC_FIELD"><ellipse cx="185" cy="389.5053" fill="none" rx="3" ry="3" style="stroke:#038048;stroke-width:1;"/></g><text fill="#000000" font-family="sans-serif" font-size="14" lengthAdjust="spacing" textLength="90.166" x="194" y="392.852">UUID user_id</text><g data-visibility-modifier="PUBLIC_FIELD"><ellipse cx="185" cy="405.8022" fill="none" rx="3" ry="3" style="stroke:#038048;stroke-width:1;"/></g><text fill="#000000" font-family="sans-serif" font-size="14" lengthAdjust="spacing" textLength="84.3418" x="194" y="409.1489">string name</text><g data-visibility-modifier="PUBLIC_FIELD"><ellipse cx="185" cy="422.0991" fill="none" rx="3" ry="3" style="stroke:#038048;stroke-width:1;"/></g><text fill="#000000" font-family="sans-serif" font-size="14" lengthAdjust="spacing" textLength="142.3516" x="194" y="425.4457">datetime created_at</text><line style="stroke:#181818;stroke-width:0.5;" x1="175" x2="341.3516" y1="432.7475" y2="432.7475"/><g data-visibility-modifier="PUBLIC_METHOD"><ellipse cx="185" cy="446.3959" fill="#84BE84" rx="3" ry="3" style="stroke:#038048;stroke-width:1;"/></g><text fill="#000000" font-family="sans-serif" font-size="14" lengthAdjust="spacing" textLength="55.6719" x="194" y="449.7426">create()</text><g data-visibility-modifier="PUBLIC_METHOD"><ellipse cx="185" cy="462.6928" fill="#84BE84" rx="3" ry="3" style="stroke:#038048;stroke-width:1;"/></g><text fill="#000000" font-family="sans-serif" font-size="14" lengthAdjust="spacing" textLength="76.8086" x="194" y="466.0395">addVideo()</text><g data-visibility-modifier="PUBLIC_METHOD"><ellipse cx="185" cy="478.9897" fill="#84BE84" rx="3" ry="3" style="stroke:#038048;stroke-width:1;"/></g><text fill="#000000" font-family="sans-serif" font-size="14" lengthAdjust="spacing" textLength="103.9268" x="194" y="482.3364">removeVideo()</text><g data-visibility-modifier="PUBLIC_METHOD"><ellipse cx="185" cy="495.2866" fill="#84BE84" rx="3" ry="3" style="stroke:#038048;stroke-width:1;"/></g><text fill="#000000" font-family="sans-serif" font-size="14" lengthAdjust="spacing" textLength="55.0293" x="194" y="498.6332">delete()</text></g><!--class Moderation--><g class="entity" data-qualified-name="Moderation" data-source-line="67" id="ent0007"><rect fill="#F1F1F1" height="162.0781" rx="2.5" ry="2.5" style="stroke:#181818;stroke-width:0.5;" width="191.7441" x="210.3" y="976.83"/><ellipse cx="262.2736" cy="992.83" fill="#ADD1B2" rx="11" ry="11" style="stroke:#181818;stroke-width:1;"/><path d="M265.2424,998.4706 Q264.6643,998.7675 264.0236,998.9081 Q263.383,999.0644 262.6799,999.0644 Q260.1799,999.0644 258.8518,997.4237 Q257.5393,995.7675 257.5393,992.6425 Q257.5393,989.5175 258.8518,987.8612 Q260.1799,986.205 262.6799,986.205 Q263.383,986.205 264.0236,986.3612 Q264.6799,986.5175 265.2424,986.8144 L265.2424,989.5331 Q264.6174,988.955 264.0236,988.6894 Q263.4299,988.4081 262.8049,988.4081 Q261.4611,988.4081 260.7736,989.4862 Q260.0861,990.5487 260.0861,992.6425 Q260.0861,994.7362 260.7736,995.8144 Q261.4611,996.8769 262.8049,996.8769 Q263.4299,996.8769 264.0236,996.6112 Q264.6174,996.33 265.2424,995.7519 L265.2424,998.4706 Z " fill="#000000"/><text fill="#000000" font-family="sans-serif" font-size="14" lengthAdjust="spacing" textLength="79.2969" x="282.7736" y="997.6767">Moderation</text><line style="stroke:#181818;stroke-width:0.5;" x1="211.3" x2="401.0441" y1="1008.83" y2="1008.83"/><g data-visibility-modifier="PUBLIC_FIELD"><ellipse cx="221.3" cy="1022.4784" fill="none" rx="3" ry="3" style="stroke:#038048;stroke-width:1;"/></g><text fill="#000000" font-family="sans-serif" font-size="14" lengthAdjust="spacing" textLength="97.8701" x="230.3" y="1025.8251">UUID video_id</text><g data-visibility-modifier="PUBLIC_FIELD"><ellipse cx="221.3" cy="1038.7753" fill="none" rx="3" ry="3" style="stroke:#038048;stroke-width:1;"/></g><text fill="#000000" font-family="sans-serif" font-size="14" lengthAdjust="spacing" textLength="133.4785" x="230.3" y="1042.122">UUID moderator_id</text><g data-visibility-modifier="PUBLIC_FIELD"><ellipse cx="221.3" cy="1055.0722" fill="none" rx="3" ry="3" style="stroke:#038048;stroke-width:1;"/></g><text fill="#000000" font-family="sans-serif" font-size="14" lengthAdjust="spacing" textLength="87.6572" x="230.3" y="1058.4189">string status</text><g data-visibility-modifier="PUBLIC_FIELD"><ellipse cx="221.3" cy="1071.3691" fill="none" rx="3" ry="3" style="stroke:#038048;stroke-width:1;"/></g><text fill="#000000" font-family="sans-serif" font-size="14" lengthAdjust="spacing" textLength="92.3193" x="230.3" y="1074.7157">string reason</text><g data-visibility-modifier="PUBLIC_FIELD"><ellipse cx="221.3" cy="1087.6659" fill="none" rx="3" ry="3" style="stroke:#038048;stroke-width:1;"/></g><text fill="#000000" font-family="sans-serif" font-size="14" lengthAdjust="spacing" textLength="165.7441" x="230.3" y="1091.0126">datetime moderated_at</text><line style="stroke:#181818;stroke-width:0.5;" x1="211.3" x2="401.0441" y1="1098.3144" y2="1098.3144"/><g data-visibility-modifier="PUBLIC_METHOD"><ellipse cx="221.3" cy="1111.9628" fill="#84BE84" rx="3" ry="3" style="stroke:#038048;stroke-width:1;"/></g><text fill="#000000" font-family="sans-serif" font-size="14" lengthAdjust="spacing" textLength="68.4961" x="230.3" y="1115.3095">approve()</text><g data-visibility-modifier="PUBLIC_METHOD"><ellipse cx="221.3" cy="1128.2597" fill="#84BE84" rx="3" ry="3" style="stroke:#038048;stroke-width:1;"/></g><text fill="#000000" font-family="sans-serif" font-size="14" lengthAdjust="spacing" textLength="50.9824" x="230.3" y="1131.6064">reject()</text></g><!--link User to Video--><g class="link" data-entity-1="ent0002" data-entity-2="ent0003" data-link-type="association" data-source-line="77" id="lnk8"><path codeLine="77" d="M371.45,250.76 C371.09,266.51 370.67,282.42 370.18,297.56 C367.12,390.23 374.53,414.33 360.18,505.94 C356.25,531 350.65,557.26 344.41,582.7" fill="none" id="User-Video" style="stroke:#181818;stroke-width:1;"/><text fill="#000000" font-family="sans-serif" font-size="13" lengthAdjust="spacing" textLength="51.0479" x="370.18" y="421.3169">uploads</text><text fill="#000000" font-family="sans-serif" font-size="13" lengthAdjust="spacing" textLength="8.271" x="363.1094" y="270.7211">1</text><text fill="#000000" font-family="sans-serif" font-size="13" lengthAdjust="spacing" textLength="23.0356" x="323.0932" y="571.9177">0..*</text></g><!--link User to Comment--><g class="link" data-entity-1="ent0002" data-entity-2="ent0004" data-link-type="association" data-source-line="78" id="lnk9"><path codeLine="78" d="M283.93,186.68 C237.51,221.4 184.65,270.13 156.18,327.56 C51.71,538.25 64.29,825.3 79.3,968.31" fill="none" id="User-Comment" style="stroke:#181818;stroke-width:1;"/><text fill="#000000" font-family="sans-serif" font-size="13" lengthAdjust="spacing" textLength="39.457" x="91.18" y="549.0069">writes</text><text fill="#000000" font-family="sans-serif" font-size="13" lengthAdjust="spacing" textLength="8.271" x="267.9284" y="188.0837">1</text><text fill="#000000" font-family="sans-serif" font-size="13" lengthAdjust="spacing" textLength="23.0356" x="54.4387" y="957.6479">0..*</text></g><!--link User to Like--><g class="link" data-entity-1="ent0002" data-entity-2="ent0005" data-link-type="association" data-source-line="79" id="lnk10"><path codeLine="79" d="M411.42,250.87 C418.42,276.04 425.11,302.52 430.18,327.56 C477.34,560.65 501.96,841.19 511.85,976.34" fill="none" id="User-Like" style="stroke:#181818;stroke-width:1;"/><text fill="#000000" font-family="sans-serif" font-size="13" lengthAdjust="spacing" textLength="34.3281" x="468.18" y="549.0069">gives</text><text fill="#000000" font-family="sans-serif" font-size="13" lengthAdjust="spacing" textLength="8.271" x="405.4076" y="270.4326">1</text><text fill="#000000" font-family="sans-serif" font-size="13" lengthAdjust="spacing" textLength="23.0356" x="487.4058" y="965.7617">0..*</text></g><!--link User to Playlist--><g class="link" data-entity-1="ent0002" data-entity-2="ent0006" data-link-type="association" data-source-line="80" id="lnk11"><path codeLine="80" d="M324.41,251.06 C314.12,276.63 303.45,303.15 293.77,327.25" fill="none" id="User-Playlist" style="stroke:#181818;stroke-width:1;"/><text fill="#000000" font-family="sans-serif" font-size="13" lengthAdjust="spacing" textLength="48.3247" x="313.18" y="293.6269">creates</text><text fill="#000000" font-family="sans-serif" font-size="13" lengthAdjust="spacing" textLength="8.271" x="313.3674" y="270.6336">1</text><text fill="#000000" font-family="sans-serif" font-size="13" lengthAdjust="spacing" textLength="23.0356" x="272.6914" y="316.5927">0..*</text></g><!--link Video to Comment--><g class="link" data-entity-1="ent0003" data-entity-2="ent0004" data-link-type="association" data-source-line="81" id="lnk12"><path codeLine="81" d="M207.98,877.11 C187.83,908.13 166.99,940.2 148.59,968.52" fill="none" id="Video-Comment" style="stroke:#181818;stroke-width:1;"/><text fill="#000000" font-family="sans-serif" font-size="13" lengthAdjust="spacing" textLength="22.9785" x="177.18" y="934.7469">has</text><text fill="#000000" font-family="sans-serif" font-size="13" lengthAdjust="spacing" textLength="8.271" x="191.8964" y="885.5517">1</text><text fill="#000000" font-family="sans-serif" font-size="13" lengthAdjust="spacing" textLength="23.0356" x="129.3937" y="957.5722">0..*</text></g><!--link Video to Like--><g class="link" data-entity-1="ent0003" data-entity-2="ent0005" data-link-type="association" data-source-line="82" id="lnk13"><path codeLine="82" d="M388.52,869.72 C413.38,905.88 439.6,944.03 461.84,976.37" fill="none" id="Video-Like" style="stroke:#181818;stroke-width:1;"/><text fill="#000000" font-family="sans-serif" font-size="13" lengthAdjust="spacing" textLength="54.5645" x="434.18" y="934.7469">receives</text><text fill="#000000" font-family="sans-serif" font-size="13" lengthAdjust="spacing" textLength="8.271" x="396.0486" y="876.7456">1</text><text fill="#000000" font-family="sans-serif" font-size="13" lengthAdjust="spacing" textLength="23.0356" x="433.0981" y="965.7942">0..*</text></g><!--link Video to Moderation--><g class="link" data-entity-1="ent0003" data-entity-2="ent0007" data-link-type="association" data-source-line="83" id="lnk14"><path codeLine="83" d="M293.96,892.04 C294.1,907.8 294.47,923.57 295.18,938.68 C295.74,950.93 296.64,963.87 297.69,976.52" fill="none" id="Video-Moderation" style="stroke:#181818;stroke-width:1;"/><text fill="#000000" font-family="sans-serif" font-size="13" lengthAdjust="spacing" textLength="106.1201" x="296.18" y="934.7469">is moderated by</text><text fill="#000000" font-family="sans-serif" font-size="13" lengthAdjust="spacing" textLength="8.271" x="285.5685" y="911.9679">1</text><text fill="#000000" font-family="sans-serif" font-size="13" lengthAdjust="spacing" textLength="24.8066" x="271.9017" y="965.6797">0..1</text></g><!--link Playlist to Video--><g class="link" data-entity-1="ent0006" data-entity-2="ent0003" data-link-type="association" data-source-line="84" id="lnk15"><path codeLine="84" d="M269.26,506.06 C272.26,529.91 275.59,556.42 278.89,582.73" fill="none" id="Playlist-Video" style="stroke:#181818;stroke-width:1;"/><text fill="#000000" font-family="sans-serif" font-size="13" lengthAdjust="spacing" textLength="55.0278" x="276.18" y="549.0069">contains</text><text fill="#000000" font-family="sans-serif" font-size="13" lengthAdjust="spacing" textLength="6.5" x="263.9502" y="526.1497">*</text><text fill="#000000" font-family="sans-serif" font-size="13" lengthAdjust="spacing" textLength="6.5" x="271.8225" y="571.9491">*</text></g><?plantuml-src dLHDJyCm3BttLqGzyI4GN7k52zAGk8nhbIMcCxHD5RiR4-A_aoPfbshT3jnirn_FpozLjIGIQm8hVZ8XRiLw_V8iK7kRs69RYTfKsAQ1pjNiZTNbLj8s_M1D3TxNae6n0Q4iE5ENadtSGeN4OA-klUixHniqyfir7rX3ZFHTRQH-HmqcHfHf6cXvhCQlCJMCUQlbeNRzNV0tovHVpPSlxEPjsVFMs7A-BYF7BHY-MMWWPR5ZD3CEb9jN6Nk8I8W5ouhIZ66JifCS6CBMjUgjdFeCWHt2VbP3BBcdEOM1XYE7mKzOYwQ66dWafEit3jGsUiESb9IdmECvMdO3PsKQwPr0ne1dHPcMNOUBnvRw4ie9pCgTyNz8DiRfJRO2gHoq48W4NXrruRndf4Ge5XgpcuqVHNCEGZemNgcLpMMP1pUET3Ia6Wu8qiWf9Qz6Gv1AYkgKZ2RadKWuaT7uCa5I5Du4EbOd1-iw6zW9G3z1nRVaVn3vOoxkxaJ-S7z_ayU7LKGvqbBAABD2x2qoBERuwnUYmjtoz-ayHMILiZ3vt2ZtJrhCY8CiAF2pJdASbV1UE5KT6HARGpOXoMz2JKB2y1majlG7?></g></svg>